M48
; DRILL file {KiCad (5.1.4)-1} date 10/26/2019 2:36:07 AM
; FORMAT={-:-/ absolute / inch / decimal}
; #@! TF.CreationDate,2019-10-26T02:36:07-04:00
; #@! TF.GenerationSoftware,Kicad,Pcbnew,(5.1.4)-1
FMAT,2
INCH
T1C0.0157
T2C0.0394
T3C0.0472
%
G90
G05
T1
X5.55Y-3.05
T2
X5.3Y-3.2
X5.4Y-3.2
T3
X4.6138Y-2.9319
X4.6138Y-3.0697
X4.6138Y-3.2075
X4.6138Y-3.3453
X4.6138Y-3.4831
X4.6138Y-3.6209
X4.6138Y-3.7587
X4.6138Y-3.8965
X4.6138Y-4.0343
X4.6138Y-4.172
X4.6138Y-4.3098
X4.6138Y-4.4476
X4.6138Y-4.5854
X4.6138Y-4.7232
X4.6138Y-4.861
X4.6138Y-4.9988
X4.6138Y-5.1366
X4.6138Y-5.2744
X4.6138Y-5.4122
X4.6138Y-5.55
X4.85Y-2.9319
X4.85Y-3.0697
X4.85Y-3.2075
X4.85Y-3.3453
X4.85Y-3.4831
X4.85Y-3.6209
X4.85Y-3.7587
X4.85Y-3.8965
X4.85Y-4.0343
X4.85Y-4.172
X4.85Y-4.3098
X4.85Y-4.4476
X4.85Y-4.5854
X4.85Y-4.7232
X4.85Y-4.861
X4.85Y-4.9988
X4.85Y-5.1366
X4.85Y-5.2744
X4.85Y-5.4122
X4.85Y-5.55
X5.8969Y-2.9319
X5.8969Y-3.0697
X5.8969Y-3.2075
X5.8969Y-3.3453
X5.8969Y-3.4831
X5.8969Y-3.6209
X5.8969Y-3.7587
X5.8969Y-3.8965
X5.8969Y-4.0343
X5.8969Y-4.172
X5.8969Y-4.3098
X5.8969Y-4.4476
X5.8969Y-4.5854
X5.8969Y-4.7232
X5.8969Y-4.861
X5.8969Y-4.9988
X5.8969Y-5.1366
X5.8969Y-5.2744
X5.8969Y-5.4122
X5.8969Y-5.55
X6.1331Y-2.9319
X6.1331Y-3.0697
X6.1331Y-3.2075
X6.1331Y-3.3453
X6.1331Y-3.4831
X6.1331Y-3.6209
X6.1331Y-3.7587
X6.1331Y-3.8965
X6.1331Y-4.0343
X6.1331Y-4.172
X6.1331Y-4.3098
X6.1331Y-4.4476
X6.1331Y-4.5854
X6.1331Y-4.7232
X6.1331Y-4.861
X6.1331Y-4.9988
X6.1331Y-5.1366
X6.1331Y-5.2744
X6.1331Y-5.4122
X6.1331Y-5.55
T0
M30
