G04 #@! TF.GenerationSoftware,KiCad,Pcbnew,(5.1.4)-1*
G04 #@! TF.CreationDate,2019-10-26T02:36:02-04:00*
G04 #@! TF.ProjectId,Star CAN Board,53746172-2043-4414-9e20-426f6172642e,rev?*
G04 #@! TF.SameCoordinates,Original*
G04 #@! TF.FileFunction,Copper,L1,Top*
G04 #@! TF.FilePolarity,Positive*
%FSLAX46Y46*%
G04 Gerber Fmt 4.6, Leading zero omitted, Abs format (unit mm)*
G04 Created by KiCad (PCBNEW (5.1.4)-1) date 2019-10-26 02:36:02*
%MOMM*%
%LPD*%
G04 APERTURE LIST*
%ADD10C,2.000000*%
%ADD11R,1.700000X1.700000*%
%ADD12O,1.700000X1.700000*%
%ADD13C,0.100000*%
%ADD14C,0.950000*%
%ADD15C,0.900000*%
%ADD16C,0.250000*%
G04 APERTURE END LIST*
D10*
X123190000Y-74470000D03*
X123190000Y-77970000D03*
X123190000Y-81470000D03*
X123190000Y-84970000D03*
X123190000Y-88470000D03*
X123190000Y-105970000D03*
X123190000Y-91970000D03*
X123190000Y-102470000D03*
X123190000Y-95470000D03*
X123190000Y-98970000D03*
X123190000Y-133970000D03*
X123190000Y-130470000D03*
X123190000Y-126970000D03*
X123190000Y-137470000D03*
X123190000Y-140970000D03*
X123190000Y-123470000D03*
X123190000Y-109470000D03*
X123190000Y-119970000D03*
X123190000Y-112970000D03*
X123190000Y-116470000D03*
X117190000Y-112970000D03*
X117190000Y-77970000D03*
X117190000Y-133970000D03*
X117190000Y-81470000D03*
X117190000Y-126970000D03*
X117190000Y-74470000D03*
X117190000Y-98970000D03*
X117190000Y-84970000D03*
X117190000Y-137470000D03*
X117190000Y-88470000D03*
X117190000Y-130470000D03*
X117190000Y-95470000D03*
X117190000Y-105970000D03*
X117190000Y-119970000D03*
X117190000Y-102470000D03*
X117190000Y-140970000D03*
X117190000Y-123470000D03*
X117190000Y-91970000D03*
X117190000Y-109470000D03*
X117190000Y-116470000D03*
X155780000Y-98970000D03*
X155780000Y-105970000D03*
X155780000Y-123470000D03*
X155780000Y-91970000D03*
X155780000Y-74470000D03*
X155780000Y-112970000D03*
X155780000Y-95470000D03*
X155780000Y-109470000D03*
X155780000Y-119970000D03*
X155780000Y-84970000D03*
X155780000Y-126970000D03*
X155780000Y-77970000D03*
X155780000Y-130470000D03*
X155780000Y-116470000D03*
X155780000Y-140970000D03*
X155780000Y-88470000D03*
X155780000Y-133970000D03*
X155780000Y-81470000D03*
X155780000Y-137470000D03*
X155780000Y-102470000D03*
X149780000Y-98970000D03*
X149780000Y-102470000D03*
X149780000Y-95470000D03*
X149780000Y-105970000D03*
X149780000Y-91970000D03*
X149780000Y-74470000D03*
X149780000Y-77970000D03*
X149780000Y-88470000D03*
X149780000Y-84970000D03*
X149780000Y-81470000D03*
X149780000Y-116470000D03*
X149780000Y-119970000D03*
X149780000Y-112970000D03*
X149780000Y-123470000D03*
X149780000Y-109470000D03*
X149780000Y-126970000D03*
X149780000Y-130470000D03*
X149780000Y-133970000D03*
X149780000Y-137470000D03*
X149780000Y-140970000D03*
D11*
X134620000Y-81280000D03*
D12*
X137160000Y-81280000D03*
D13*
G36*
X135325779Y-76996144D02*
G01*
X135348834Y-76999563D01*
X135371443Y-77005227D01*
X135393387Y-77013079D01*
X135414457Y-77023044D01*
X135434448Y-77035026D01*
X135453168Y-77048910D01*
X135470438Y-77064562D01*
X135486090Y-77081832D01*
X135499974Y-77100552D01*
X135511956Y-77120543D01*
X135521921Y-77141613D01*
X135529773Y-77163557D01*
X135535437Y-77186166D01*
X135538856Y-77209221D01*
X135540000Y-77232500D01*
X135540000Y-77707500D01*
X135538856Y-77730779D01*
X135535437Y-77753834D01*
X135529773Y-77776443D01*
X135521921Y-77798387D01*
X135511956Y-77819457D01*
X135499974Y-77839448D01*
X135486090Y-77858168D01*
X135470438Y-77875438D01*
X135453168Y-77891090D01*
X135434448Y-77904974D01*
X135414457Y-77916956D01*
X135393387Y-77926921D01*
X135371443Y-77934773D01*
X135348834Y-77940437D01*
X135325779Y-77943856D01*
X135302500Y-77945000D01*
X134727500Y-77945000D01*
X134704221Y-77943856D01*
X134681166Y-77940437D01*
X134658557Y-77934773D01*
X134636613Y-77926921D01*
X134615543Y-77916956D01*
X134595552Y-77904974D01*
X134576832Y-77891090D01*
X134559562Y-77875438D01*
X134543910Y-77858168D01*
X134530026Y-77839448D01*
X134518044Y-77819457D01*
X134508079Y-77798387D01*
X134500227Y-77776443D01*
X134494563Y-77753834D01*
X134491144Y-77730779D01*
X134490000Y-77707500D01*
X134490000Y-77232500D01*
X134491144Y-77209221D01*
X134494563Y-77186166D01*
X134500227Y-77163557D01*
X134508079Y-77141613D01*
X134518044Y-77120543D01*
X134530026Y-77100552D01*
X134543910Y-77081832D01*
X134559562Y-77064562D01*
X134576832Y-77048910D01*
X134595552Y-77035026D01*
X134615543Y-77023044D01*
X134636613Y-77013079D01*
X134658557Y-77005227D01*
X134681166Y-76999563D01*
X134704221Y-76996144D01*
X134727500Y-76995000D01*
X135302500Y-76995000D01*
X135325779Y-76996144D01*
X135325779Y-76996144D01*
G37*
D14*
X135015000Y-77470000D03*
D13*
G36*
X137075779Y-76996144D02*
G01*
X137098834Y-76999563D01*
X137121443Y-77005227D01*
X137143387Y-77013079D01*
X137164457Y-77023044D01*
X137184448Y-77035026D01*
X137203168Y-77048910D01*
X137220438Y-77064562D01*
X137236090Y-77081832D01*
X137249974Y-77100552D01*
X137261956Y-77120543D01*
X137271921Y-77141613D01*
X137279773Y-77163557D01*
X137285437Y-77186166D01*
X137288856Y-77209221D01*
X137290000Y-77232500D01*
X137290000Y-77707500D01*
X137288856Y-77730779D01*
X137285437Y-77753834D01*
X137279773Y-77776443D01*
X137271921Y-77798387D01*
X137261956Y-77819457D01*
X137249974Y-77839448D01*
X137236090Y-77858168D01*
X137220438Y-77875438D01*
X137203168Y-77891090D01*
X137184448Y-77904974D01*
X137164457Y-77916956D01*
X137143387Y-77926921D01*
X137121443Y-77934773D01*
X137098834Y-77940437D01*
X137075779Y-77943856D01*
X137052500Y-77945000D01*
X136477500Y-77945000D01*
X136454221Y-77943856D01*
X136431166Y-77940437D01*
X136408557Y-77934773D01*
X136386613Y-77926921D01*
X136365543Y-77916956D01*
X136345552Y-77904974D01*
X136326832Y-77891090D01*
X136309562Y-77875438D01*
X136293910Y-77858168D01*
X136280026Y-77839448D01*
X136268044Y-77819457D01*
X136258079Y-77798387D01*
X136250227Y-77776443D01*
X136244563Y-77753834D01*
X136241144Y-77730779D01*
X136240000Y-77707500D01*
X136240000Y-77232500D01*
X136241144Y-77209221D01*
X136244563Y-77186166D01*
X136250227Y-77163557D01*
X136258079Y-77141613D01*
X136268044Y-77120543D01*
X136280026Y-77100552D01*
X136293910Y-77081832D01*
X136309562Y-77064562D01*
X136326832Y-77048910D01*
X136345552Y-77035026D01*
X136365543Y-77023044D01*
X136386613Y-77013079D01*
X136408557Y-77005227D01*
X136431166Y-76999563D01*
X136454221Y-76996144D01*
X136477500Y-76995000D01*
X137052500Y-76995000D01*
X137075779Y-76996144D01*
X137075779Y-76996144D01*
G37*
D14*
X136765000Y-77470000D03*
D15*
X140970000Y-77470000D03*
D16*
X123190000Y-74470000D02*
X117190000Y-74470000D01*
X123190000Y-81470000D02*
X117190000Y-81470000D01*
X123190000Y-88470000D02*
X117190000Y-88470000D01*
X123190000Y-95470000D02*
X117190000Y-95470000D01*
X123190000Y-102470000D02*
X117190000Y-102470000D01*
X123190000Y-109470000D02*
X117190000Y-109470000D01*
X123190000Y-116470000D02*
X117190000Y-116470000D01*
X123190000Y-123470000D02*
X117190000Y-123470000D01*
X123190000Y-130470000D02*
X117190000Y-130470000D01*
X123190000Y-137470000D02*
X117190000Y-137470000D01*
X123190000Y-74470000D02*
X125270000Y-74470000D01*
X125270000Y-74470000D02*
X125730000Y-74930000D01*
X125540000Y-81470000D02*
X125730000Y-81280000D01*
X123190000Y-81470000D02*
X125540000Y-81470000D01*
X125730000Y-74930000D02*
X125730000Y-81280000D01*
X125300000Y-88470000D02*
X125730000Y-88900000D01*
X123190000Y-88470000D02*
X125300000Y-88470000D01*
X125730000Y-81280000D02*
X125730000Y-88900000D01*
X123190000Y-95470000D02*
X125510000Y-95470000D01*
X125510000Y-95470000D02*
X125730000Y-95250000D01*
X123190000Y-102470000D02*
X125330000Y-102470000D01*
X125330000Y-102470000D02*
X125730000Y-102870000D01*
X125480000Y-109470000D02*
X125730000Y-109220000D01*
X123190000Y-109470000D02*
X125480000Y-109470000D01*
X125730000Y-88900000D02*
X125730000Y-109220000D01*
X125360000Y-116470000D02*
X125730000Y-116840000D01*
X123190000Y-116470000D02*
X125360000Y-116470000D01*
X125730000Y-109220000D02*
X125730000Y-116840000D01*
X125450000Y-123470000D02*
X125730000Y-123190000D01*
X123190000Y-123470000D02*
X125450000Y-123470000D01*
X125730000Y-116840000D02*
X125730000Y-123190000D01*
X125390000Y-130470000D02*
X125730000Y-130810000D01*
X123190000Y-130470000D02*
X125390000Y-130470000D01*
X125730000Y-123190000D02*
X125730000Y-130810000D01*
X125420000Y-137470000D02*
X125730000Y-137160000D01*
X123190000Y-137470000D02*
X125420000Y-137470000D01*
X154365787Y-77970000D02*
X149780000Y-77970000D01*
X155780000Y-77970000D02*
X154365787Y-77970000D01*
X155780000Y-84970000D02*
X149780000Y-84970000D01*
X154365787Y-91970000D02*
X149780000Y-91970000D01*
X155780000Y-91970000D02*
X154365787Y-91970000D01*
X155780000Y-98970000D02*
X149780000Y-98970000D01*
X154365787Y-105970000D02*
X149780000Y-105970000D01*
X155780000Y-105970000D02*
X154365787Y-105970000D01*
X155780000Y-112970000D02*
X149780000Y-112970000D01*
X155780000Y-119970000D02*
X149780000Y-119970000D01*
X155780000Y-126970000D02*
X149780000Y-126970000D01*
X155780000Y-133970000D02*
X149780000Y-133970000D01*
X155780000Y-140970000D02*
X149780000Y-140970000D01*
X149780000Y-77970000D02*
X148090000Y-77970000D01*
X148090000Y-77970000D02*
X147320000Y-78740000D01*
X147320000Y-140970000D02*
X149780000Y-140970000D01*
X149780000Y-133970000D02*
X147970000Y-133970000D01*
X147970000Y-133970000D02*
X147320000Y-134620000D01*
X147350000Y-126970000D02*
X147320000Y-127000000D01*
X149780000Y-126970000D02*
X147350000Y-126970000D01*
X147320000Y-127000000D02*
X147320000Y-134620000D01*
X148000000Y-119970000D02*
X147320000Y-120650000D01*
X149780000Y-119970000D02*
X148000000Y-119970000D01*
X147320000Y-120650000D02*
X147320000Y-127000000D01*
X147380000Y-112970000D02*
X147320000Y-113030000D01*
X149780000Y-112970000D02*
X147380000Y-112970000D01*
X147320000Y-113030000D02*
X147320000Y-120650000D01*
X148030000Y-105970000D02*
X147320000Y-106680000D01*
X149780000Y-105970000D02*
X148030000Y-105970000D01*
X147320000Y-106680000D02*
X147320000Y-113030000D01*
X147410000Y-98970000D02*
X147320000Y-99060000D01*
X149780000Y-98970000D02*
X147410000Y-98970000D01*
X147320000Y-99060000D02*
X147320000Y-106680000D01*
X147850000Y-91970000D02*
X147320000Y-91440000D01*
X149780000Y-91970000D02*
X147850000Y-91970000D01*
X147320000Y-91440000D02*
X147320000Y-99060000D01*
X147440000Y-84970000D02*
X147320000Y-85090000D01*
X149780000Y-84970000D02*
X147440000Y-84970000D01*
X147320000Y-78740000D02*
X147320000Y-85090000D01*
X147320000Y-85090000D02*
X147320000Y-91440000D01*
X137160000Y-81280000D02*
X144780000Y-81280000D01*
X144780000Y-81280000D02*
X147320000Y-78740000D01*
X147320000Y-134620000D02*
X147320000Y-135890000D01*
X125730000Y-135890000D02*
X125730000Y-137160000D01*
X125730000Y-130810000D02*
X125730000Y-135890000D01*
X125730000Y-137160000D02*
X125730000Y-139700000D01*
X125730000Y-139700000D02*
X147320000Y-139700000D01*
X147320000Y-135890000D02*
X147320000Y-139700000D01*
X147320000Y-139700000D02*
X147320000Y-140970000D01*
X140970000Y-77470000D02*
X136765000Y-77470000D01*
X134620000Y-77865000D02*
X135015000Y-77470000D01*
X135015000Y-80885000D02*
X134620000Y-81280000D01*
X135015000Y-77470000D02*
X135015000Y-80885000D01*
M02*
