G04 #@! TF.GenerationSoftware,KiCad,Pcbnew,(5.1.4)-1*
G04 #@! TF.CreationDate,2019-10-26T02:36:02-04:00*
G04 #@! TF.ProjectId,Star CAN Board,53746172-2043-4414-9e20-426f6172642e,rev?*
G04 #@! TF.SameCoordinates,Original*
G04 #@! TF.FileFunction,Profile,NP*
%FSLAX46Y46*%
G04 Gerber Fmt 4.6, Leading zero omitted, Abs format (unit mm)*
G04 Created by KiCad (PCBNEW (5.1.4)-1) date 2019-10-26 02:36:02*
%MOMM*%
%LPD*%
G04 APERTURE LIST*
%ADD10C,0.050000*%
%ADD11C,0.100000*%
G04 APERTURE END LIST*
D10*
X162520000Y-79750000D02*
G75*
G03X162520000Y-79750000I-1270000J0D01*
G01*
X162520000Y-93750000D02*
G75*
G03X162520000Y-93750000I-1270000J0D01*
G01*
X162520000Y-107750000D02*
G75*
G03X162520000Y-107750000I-1270000J0D01*
G01*
X162520000Y-122000000D02*
G75*
G03X162520000Y-122000000I-1270000J0D01*
G01*
X162520000Y-135750000D02*
G75*
G03X162520000Y-135750000I-1270000J0D01*
G01*
X113020000Y-135750000D02*
G75*
G03X113020000Y-135750000I-1270000J0D01*
G01*
X113020000Y-121750000D02*
G75*
G03X113020000Y-121750000I-1270000J0D01*
G01*
X113020000Y-107750000D02*
G75*
G03X113020000Y-107750000I-1270000J0D01*
G01*
X113020000Y-93750000D02*
G75*
G03X113020000Y-93750000I-1270000J0D01*
G01*
X113020000Y-79750000D02*
G75*
G03X113020000Y-79750000I-1270000J0D01*
G01*
X141605000Y-128270000D02*
G75*
G03X141605000Y-128270000I-1270000J0D01*
G01*
X133985000Y-128270000D02*
G75*
G03X133985000Y-128270000I-1270000J0D01*
G01*
X141605000Y-109220000D02*
G75*
G03X141605000Y-109220000I-1270000J0D01*
G01*
X133985000Y-109220000D02*
G75*
G03X133985000Y-109220000I-1270000J0D01*
G01*
X141605000Y-93345000D02*
G75*
G03X141605000Y-93345000I-1270000J0D01*
G01*
X133985000Y-93345000D02*
G75*
G03X133985000Y-93345000I-1270000J0D01*
G01*
D11*
X106680000Y-149860000D02*
X106680000Y-63500000D01*
X106680000Y-151130000D02*
X106680000Y-149860000D01*
X166370000Y-151130000D02*
X106680000Y-151130000D01*
X166370000Y-63500000D02*
X166370000Y-151130000D01*
X106680000Y-63500000D02*
X166370000Y-63500000D01*
D10*
X113024000Y-145500000D02*
G75*
G03X113024000Y-145500000I-1524000J0D01*
G01*
X163024000Y-145500000D02*
G75*
G03X163024000Y-145500000I-1524000J0D01*
G01*
X113024000Y-69000000D02*
G75*
G03X113024000Y-69000000I-1524000J0D01*
G01*
X163024000Y-69000000D02*
G75*
G03X163024000Y-69000000I-1524000J0D01*
G01*
M02*
