G04 #@! TF.GenerationSoftware,KiCad,Pcbnew,(5.1.4)-1*
G04 #@! TF.CreationDate,2020-01-22T18:28:44-05:00*
G04 #@! TF.ProjectId,Star CAN Board,53746172-2043-4414-9e20-426f6172642e,rev?*
G04 #@! TF.SameCoordinates,Original*
G04 #@! TF.FileFunction,Copper,L2,Bot*
G04 #@! TF.FilePolarity,Positive*
%FSLAX46Y46*%
G04 Gerber Fmt 4.6, Leading zero omitted, Abs format (unit mm)*
G04 Created by KiCad (PCBNEW (5.1.4)-1) date 2020-01-22 18:28:44*
%MOMM*%
%LPD*%
G04 APERTURE LIST*
%ADD10O,1.600000X1.600000*%
%ADD11C,1.600000*%
%ADD12C,2.000000*%
%ADD13R,1.700000X1.700000*%
%ADD14O,1.700000X1.700000*%
%ADD15C,0.250000*%
G04 APERTURE END LIST*
D10*
X130840000Y-77500000D03*
D11*
X141000000Y-77500000D03*
D12*
X123190000Y-74470000D03*
X123190000Y-77970000D03*
X123190000Y-81470000D03*
X123190000Y-84970000D03*
X123190000Y-88470000D03*
X123190000Y-105970000D03*
X123190000Y-91970000D03*
X123190000Y-102470000D03*
X123190000Y-95470000D03*
X123190000Y-98970000D03*
X123190000Y-133970000D03*
X123190000Y-130470000D03*
X123190000Y-126970000D03*
X123190000Y-137470000D03*
X123190000Y-140970000D03*
X123190000Y-123470000D03*
X123190000Y-109470000D03*
X123190000Y-119970000D03*
X123190000Y-112970000D03*
X123190000Y-116470000D03*
X117190000Y-112970000D03*
X117190000Y-77970000D03*
X117190000Y-133970000D03*
X117190000Y-81470000D03*
X117190000Y-126970000D03*
X117190000Y-74470000D03*
X117190000Y-98970000D03*
X117190000Y-84970000D03*
X117190000Y-137470000D03*
X117190000Y-88470000D03*
X117190000Y-130470000D03*
X117190000Y-95470000D03*
X117190000Y-105970000D03*
X117190000Y-119970000D03*
X117190000Y-102470000D03*
X117190000Y-140970000D03*
X117190000Y-123470000D03*
X117190000Y-91970000D03*
X117190000Y-109470000D03*
X117190000Y-116470000D03*
X155780000Y-98970000D03*
X155780000Y-105970000D03*
X155780000Y-123470000D03*
X155780000Y-91970000D03*
X155780000Y-74470000D03*
X155780000Y-112970000D03*
X155780000Y-95470000D03*
X155780000Y-109470000D03*
X155780000Y-119970000D03*
X155780000Y-84970000D03*
X155780000Y-126970000D03*
X155780000Y-77970000D03*
X155780000Y-130470000D03*
X155780000Y-116470000D03*
X155780000Y-140970000D03*
X155780000Y-88470000D03*
X155780000Y-133970000D03*
X155780000Y-81470000D03*
X155780000Y-137470000D03*
X155780000Y-102470000D03*
X149780000Y-98970000D03*
X149780000Y-102470000D03*
X149780000Y-95470000D03*
X149780000Y-105970000D03*
X149780000Y-91970000D03*
X149780000Y-74470000D03*
X149780000Y-77970000D03*
X149780000Y-88470000D03*
X149780000Y-84970000D03*
X149780000Y-81470000D03*
X149780000Y-116470000D03*
X149780000Y-119970000D03*
X149780000Y-112970000D03*
X149780000Y-123470000D03*
X149780000Y-109470000D03*
X149780000Y-126970000D03*
X149780000Y-130470000D03*
X149780000Y-133970000D03*
X149780000Y-137470000D03*
X149780000Y-140970000D03*
D13*
X134620000Y-83500000D03*
D14*
X137160000Y-83500000D03*
D15*
X117190000Y-77970000D02*
X123190000Y-77970000D01*
X117190000Y-84970000D02*
X123190000Y-84970000D01*
X117190000Y-91970000D02*
X123190000Y-91970000D01*
X117190000Y-98970000D02*
X123190000Y-98970000D01*
X123190000Y-105970000D02*
X117190000Y-105970000D01*
X117190000Y-112970000D02*
X123190000Y-112970000D01*
X117190000Y-119970000D02*
X123190000Y-119970000D01*
X117190000Y-126970000D02*
X123190000Y-126970000D01*
X117190000Y-133970000D02*
X123190000Y-133970000D01*
X117190000Y-140970000D02*
X123190000Y-140970000D01*
X123190000Y-77970000D02*
X126230000Y-77970000D01*
X126230000Y-77970000D02*
X127000000Y-78740000D01*
X123190000Y-140970000D02*
X127000000Y-140970000D01*
X123190000Y-84970000D02*
X126880000Y-84970000D01*
X126880000Y-84970000D02*
X127000000Y-85090000D01*
X127000000Y-78740000D02*
X127000000Y-85090000D01*
X126470000Y-91970000D02*
X127000000Y-91440000D01*
X123190000Y-91970000D02*
X126470000Y-91970000D01*
X127000000Y-85090000D02*
X127000000Y-91440000D01*
X126910000Y-98970000D02*
X127000000Y-99060000D01*
X123190000Y-98970000D02*
X126910000Y-98970000D01*
X127000000Y-91440000D02*
X127000000Y-99060000D01*
X126440000Y-105970000D02*
X127000000Y-105410000D01*
X123190000Y-105970000D02*
X126440000Y-105970000D01*
X127000000Y-99060000D02*
X127000000Y-105410000D01*
X126940000Y-112970000D02*
X127000000Y-113030000D01*
X123190000Y-112970000D02*
X126940000Y-112970000D01*
X127000000Y-105410000D02*
X127000000Y-113030000D01*
X126320000Y-119970000D02*
X127000000Y-120650000D01*
X123190000Y-119970000D02*
X126320000Y-119970000D01*
X127000000Y-113030000D02*
X127000000Y-120650000D01*
X126970000Y-126970000D02*
X127000000Y-127000000D01*
X123190000Y-126970000D02*
X126970000Y-126970000D01*
X127000000Y-120650000D02*
X127000000Y-127000000D01*
X126350000Y-133970000D02*
X127000000Y-134620000D01*
X123190000Y-133970000D02*
X126350000Y-133970000D01*
X127000000Y-127000000D02*
X127000000Y-134620000D01*
X154365787Y-137470000D02*
X149780000Y-137470000D01*
X155780000Y-137470000D02*
X154365787Y-137470000D01*
X149780000Y-130470000D02*
X155780000Y-130470000D01*
X155780000Y-123470000D02*
X149780000Y-123470000D01*
X155780000Y-116470000D02*
X149780000Y-116470000D01*
X155780000Y-109470000D02*
X149780000Y-109470000D01*
X155780000Y-102470000D02*
X149780000Y-102470000D01*
X155780000Y-95470000D02*
X149780000Y-95470000D01*
X155780000Y-88470000D02*
X149780000Y-88470000D01*
X155780000Y-81470000D02*
X149780000Y-81470000D01*
X155780000Y-74470000D02*
X149780000Y-74470000D01*
X146510000Y-74470000D02*
X149780000Y-74470000D01*
X146050000Y-74930000D02*
X146510000Y-74470000D01*
X146360000Y-137470000D02*
X146050000Y-137160000D01*
X149780000Y-137470000D02*
X146360000Y-137470000D01*
X146390000Y-130470000D02*
X146050000Y-130810000D01*
X149780000Y-130470000D02*
X146390000Y-130470000D01*
X146050000Y-137160000D02*
X146050000Y-130810000D01*
X146330000Y-123470000D02*
X146050000Y-123190000D01*
X149780000Y-123470000D02*
X146330000Y-123470000D01*
X146050000Y-130810000D02*
X146050000Y-123190000D01*
X146420000Y-116470000D02*
X146050000Y-116840000D01*
X149780000Y-116470000D02*
X146420000Y-116470000D01*
X146050000Y-123190000D02*
X146050000Y-116840000D01*
X146300000Y-109470000D02*
X146050000Y-109220000D01*
X149780000Y-109470000D02*
X146300000Y-109470000D01*
X146050000Y-116840000D02*
X146050000Y-109220000D01*
X146450000Y-102470000D02*
X146050000Y-102870000D01*
X149780000Y-102470000D02*
X146450000Y-102470000D01*
X146050000Y-109220000D02*
X146050000Y-102870000D01*
X149780000Y-95470000D02*
X146270000Y-95470000D01*
X146270000Y-95470000D02*
X146050000Y-95250000D01*
X146050000Y-102870000D02*
X146050000Y-95250000D01*
X146890000Y-88470000D02*
X146050000Y-87630000D01*
X149780000Y-88470000D02*
X146890000Y-88470000D01*
X146050000Y-95250000D02*
X146050000Y-87630000D01*
X146240000Y-81470000D02*
X146050000Y-81280000D01*
X149780000Y-81470000D02*
X146240000Y-81470000D01*
X146050000Y-87630000D02*
X146050000Y-81280000D01*
X146050000Y-81280000D02*
X146050000Y-74930000D01*
X127000000Y-137160000D02*
X127000000Y-140970000D01*
X127000000Y-134620000D02*
X127000000Y-137160000D01*
X142860000Y-140970000D02*
X146360000Y-137470000D01*
X127000000Y-140970000D02*
X142860000Y-140970000D01*
X141000000Y-77500000D02*
X143570000Y-74930000D01*
X146050000Y-74930000D02*
X143570000Y-74930000D01*
X143570000Y-74930000D02*
X143510000Y-74930000D01*
M02*
