G04 #@! TF.GenerationSoftware,KiCad,Pcbnew,(5.1.4)-1*
G04 #@! TF.CreationDate,2020-01-22T18:28:44-05:00*
G04 #@! TF.ProjectId,Star CAN Board,53746172-2043-4414-9e20-426f6172642e,rev?*
G04 #@! TF.SameCoordinates,Original*
G04 #@! TF.FileFunction,Soldermask,Bot*
G04 #@! TF.FilePolarity,Negative*
%FSLAX46Y46*%
G04 Gerber Fmt 4.6, Leading zero omitted, Abs format (unit mm)*
G04 Created by KiCad (PCBNEW (5.1.4)-1) date 2020-01-22 18:28:44*
%MOMM*%
%LPD*%
G04 APERTURE LIST*
%ADD10C,0.100000*%
G04 APERTURE END LIST*
D10*
G36*
X156086564Y-139959389D02*
G01*
X156277833Y-140038615D01*
X156277835Y-140038616D01*
X156449973Y-140153635D01*
X156596365Y-140300027D01*
X156711385Y-140472167D01*
X156790611Y-140663436D01*
X156831000Y-140866484D01*
X156831000Y-141073516D01*
X156790611Y-141276564D01*
X156711385Y-141467833D01*
X156711384Y-141467835D01*
X156596365Y-141639973D01*
X156449973Y-141786365D01*
X156277835Y-141901384D01*
X156277834Y-141901385D01*
X156277833Y-141901385D01*
X156086564Y-141980611D01*
X155883516Y-142021000D01*
X155676484Y-142021000D01*
X155473436Y-141980611D01*
X155282167Y-141901385D01*
X155282166Y-141901385D01*
X155282165Y-141901384D01*
X155110027Y-141786365D01*
X154963635Y-141639973D01*
X154848616Y-141467835D01*
X154848615Y-141467833D01*
X154769389Y-141276564D01*
X154729000Y-141073516D01*
X154729000Y-140866484D01*
X154769389Y-140663436D01*
X154848615Y-140472167D01*
X154963635Y-140300027D01*
X155110027Y-140153635D01*
X155282165Y-140038616D01*
X155282167Y-140038615D01*
X155473436Y-139959389D01*
X155676484Y-139919000D01*
X155883516Y-139919000D01*
X156086564Y-139959389D01*
X156086564Y-139959389D01*
G37*
G36*
X150086564Y-139959389D02*
G01*
X150277833Y-140038615D01*
X150277835Y-140038616D01*
X150449973Y-140153635D01*
X150596365Y-140300027D01*
X150711385Y-140472167D01*
X150790611Y-140663436D01*
X150831000Y-140866484D01*
X150831000Y-141073516D01*
X150790611Y-141276564D01*
X150711385Y-141467833D01*
X150711384Y-141467835D01*
X150596365Y-141639973D01*
X150449973Y-141786365D01*
X150277835Y-141901384D01*
X150277834Y-141901385D01*
X150277833Y-141901385D01*
X150086564Y-141980611D01*
X149883516Y-142021000D01*
X149676484Y-142021000D01*
X149473436Y-141980611D01*
X149282167Y-141901385D01*
X149282166Y-141901385D01*
X149282165Y-141901384D01*
X149110027Y-141786365D01*
X148963635Y-141639973D01*
X148848616Y-141467835D01*
X148848615Y-141467833D01*
X148769389Y-141276564D01*
X148729000Y-141073516D01*
X148729000Y-140866484D01*
X148769389Y-140663436D01*
X148848615Y-140472167D01*
X148963635Y-140300027D01*
X149110027Y-140153635D01*
X149282165Y-140038616D01*
X149282167Y-140038615D01*
X149473436Y-139959389D01*
X149676484Y-139919000D01*
X149883516Y-139919000D01*
X150086564Y-139959389D01*
X150086564Y-139959389D01*
G37*
G36*
X117496564Y-139959389D02*
G01*
X117687833Y-140038615D01*
X117687835Y-140038616D01*
X117859973Y-140153635D01*
X118006365Y-140300027D01*
X118121385Y-140472167D01*
X118200611Y-140663436D01*
X118241000Y-140866484D01*
X118241000Y-141073516D01*
X118200611Y-141276564D01*
X118121385Y-141467833D01*
X118121384Y-141467835D01*
X118006365Y-141639973D01*
X117859973Y-141786365D01*
X117687835Y-141901384D01*
X117687834Y-141901385D01*
X117687833Y-141901385D01*
X117496564Y-141980611D01*
X117293516Y-142021000D01*
X117086484Y-142021000D01*
X116883436Y-141980611D01*
X116692167Y-141901385D01*
X116692166Y-141901385D01*
X116692165Y-141901384D01*
X116520027Y-141786365D01*
X116373635Y-141639973D01*
X116258616Y-141467835D01*
X116258615Y-141467833D01*
X116179389Y-141276564D01*
X116139000Y-141073516D01*
X116139000Y-140866484D01*
X116179389Y-140663436D01*
X116258615Y-140472167D01*
X116373635Y-140300027D01*
X116520027Y-140153635D01*
X116692165Y-140038616D01*
X116692167Y-140038615D01*
X116883436Y-139959389D01*
X117086484Y-139919000D01*
X117293516Y-139919000D01*
X117496564Y-139959389D01*
X117496564Y-139959389D01*
G37*
G36*
X123496564Y-139959389D02*
G01*
X123687833Y-140038615D01*
X123687835Y-140038616D01*
X123859973Y-140153635D01*
X124006365Y-140300027D01*
X124121385Y-140472167D01*
X124200611Y-140663436D01*
X124241000Y-140866484D01*
X124241000Y-141073516D01*
X124200611Y-141276564D01*
X124121385Y-141467833D01*
X124121384Y-141467835D01*
X124006365Y-141639973D01*
X123859973Y-141786365D01*
X123687835Y-141901384D01*
X123687834Y-141901385D01*
X123687833Y-141901385D01*
X123496564Y-141980611D01*
X123293516Y-142021000D01*
X123086484Y-142021000D01*
X122883436Y-141980611D01*
X122692167Y-141901385D01*
X122692166Y-141901385D01*
X122692165Y-141901384D01*
X122520027Y-141786365D01*
X122373635Y-141639973D01*
X122258616Y-141467835D01*
X122258615Y-141467833D01*
X122179389Y-141276564D01*
X122139000Y-141073516D01*
X122139000Y-140866484D01*
X122179389Y-140663436D01*
X122258615Y-140472167D01*
X122373635Y-140300027D01*
X122520027Y-140153635D01*
X122692165Y-140038616D01*
X122692167Y-140038615D01*
X122883436Y-139959389D01*
X123086484Y-139919000D01*
X123293516Y-139919000D01*
X123496564Y-139959389D01*
X123496564Y-139959389D01*
G37*
G36*
X117496564Y-136459389D02*
G01*
X117687833Y-136538615D01*
X117687835Y-136538616D01*
X117859973Y-136653635D01*
X118006365Y-136800027D01*
X118121385Y-136972167D01*
X118200611Y-137163436D01*
X118241000Y-137366484D01*
X118241000Y-137573516D01*
X118200611Y-137776564D01*
X118121385Y-137967833D01*
X118121384Y-137967835D01*
X118006365Y-138139973D01*
X117859973Y-138286365D01*
X117687835Y-138401384D01*
X117687834Y-138401385D01*
X117687833Y-138401385D01*
X117496564Y-138480611D01*
X117293516Y-138521000D01*
X117086484Y-138521000D01*
X116883436Y-138480611D01*
X116692167Y-138401385D01*
X116692166Y-138401385D01*
X116692165Y-138401384D01*
X116520027Y-138286365D01*
X116373635Y-138139973D01*
X116258616Y-137967835D01*
X116258615Y-137967833D01*
X116179389Y-137776564D01*
X116139000Y-137573516D01*
X116139000Y-137366484D01*
X116179389Y-137163436D01*
X116258615Y-136972167D01*
X116373635Y-136800027D01*
X116520027Y-136653635D01*
X116692165Y-136538616D01*
X116692167Y-136538615D01*
X116883436Y-136459389D01*
X117086484Y-136419000D01*
X117293516Y-136419000D01*
X117496564Y-136459389D01*
X117496564Y-136459389D01*
G37*
G36*
X123496564Y-136459389D02*
G01*
X123687833Y-136538615D01*
X123687835Y-136538616D01*
X123859973Y-136653635D01*
X124006365Y-136800027D01*
X124121385Y-136972167D01*
X124200611Y-137163436D01*
X124241000Y-137366484D01*
X124241000Y-137573516D01*
X124200611Y-137776564D01*
X124121385Y-137967833D01*
X124121384Y-137967835D01*
X124006365Y-138139973D01*
X123859973Y-138286365D01*
X123687835Y-138401384D01*
X123687834Y-138401385D01*
X123687833Y-138401385D01*
X123496564Y-138480611D01*
X123293516Y-138521000D01*
X123086484Y-138521000D01*
X122883436Y-138480611D01*
X122692167Y-138401385D01*
X122692166Y-138401385D01*
X122692165Y-138401384D01*
X122520027Y-138286365D01*
X122373635Y-138139973D01*
X122258616Y-137967835D01*
X122258615Y-137967833D01*
X122179389Y-137776564D01*
X122139000Y-137573516D01*
X122139000Y-137366484D01*
X122179389Y-137163436D01*
X122258615Y-136972167D01*
X122373635Y-136800027D01*
X122520027Y-136653635D01*
X122692165Y-136538616D01*
X122692167Y-136538615D01*
X122883436Y-136459389D01*
X123086484Y-136419000D01*
X123293516Y-136419000D01*
X123496564Y-136459389D01*
X123496564Y-136459389D01*
G37*
G36*
X156086564Y-136459389D02*
G01*
X156277833Y-136538615D01*
X156277835Y-136538616D01*
X156449973Y-136653635D01*
X156596365Y-136800027D01*
X156711385Y-136972167D01*
X156790611Y-137163436D01*
X156831000Y-137366484D01*
X156831000Y-137573516D01*
X156790611Y-137776564D01*
X156711385Y-137967833D01*
X156711384Y-137967835D01*
X156596365Y-138139973D01*
X156449973Y-138286365D01*
X156277835Y-138401384D01*
X156277834Y-138401385D01*
X156277833Y-138401385D01*
X156086564Y-138480611D01*
X155883516Y-138521000D01*
X155676484Y-138521000D01*
X155473436Y-138480611D01*
X155282167Y-138401385D01*
X155282166Y-138401385D01*
X155282165Y-138401384D01*
X155110027Y-138286365D01*
X154963635Y-138139973D01*
X154848616Y-137967835D01*
X154848615Y-137967833D01*
X154769389Y-137776564D01*
X154729000Y-137573516D01*
X154729000Y-137366484D01*
X154769389Y-137163436D01*
X154848615Y-136972167D01*
X154963635Y-136800027D01*
X155110027Y-136653635D01*
X155282165Y-136538616D01*
X155282167Y-136538615D01*
X155473436Y-136459389D01*
X155676484Y-136419000D01*
X155883516Y-136419000D01*
X156086564Y-136459389D01*
X156086564Y-136459389D01*
G37*
G36*
X150086564Y-136459389D02*
G01*
X150277833Y-136538615D01*
X150277835Y-136538616D01*
X150449973Y-136653635D01*
X150596365Y-136800027D01*
X150711385Y-136972167D01*
X150790611Y-137163436D01*
X150831000Y-137366484D01*
X150831000Y-137573516D01*
X150790611Y-137776564D01*
X150711385Y-137967833D01*
X150711384Y-137967835D01*
X150596365Y-138139973D01*
X150449973Y-138286365D01*
X150277835Y-138401384D01*
X150277834Y-138401385D01*
X150277833Y-138401385D01*
X150086564Y-138480611D01*
X149883516Y-138521000D01*
X149676484Y-138521000D01*
X149473436Y-138480611D01*
X149282167Y-138401385D01*
X149282166Y-138401385D01*
X149282165Y-138401384D01*
X149110027Y-138286365D01*
X148963635Y-138139973D01*
X148848616Y-137967835D01*
X148848615Y-137967833D01*
X148769389Y-137776564D01*
X148729000Y-137573516D01*
X148729000Y-137366484D01*
X148769389Y-137163436D01*
X148848615Y-136972167D01*
X148963635Y-136800027D01*
X149110027Y-136653635D01*
X149282165Y-136538616D01*
X149282167Y-136538615D01*
X149473436Y-136459389D01*
X149676484Y-136419000D01*
X149883516Y-136419000D01*
X150086564Y-136459389D01*
X150086564Y-136459389D01*
G37*
G36*
X156086564Y-132959389D02*
G01*
X156277833Y-133038615D01*
X156277835Y-133038616D01*
X156449973Y-133153635D01*
X156596365Y-133300027D01*
X156711385Y-133472167D01*
X156790611Y-133663436D01*
X156831000Y-133866484D01*
X156831000Y-134073516D01*
X156790611Y-134276564D01*
X156711385Y-134467833D01*
X156711384Y-134467835D01*
X156596365Y-134639973D01*
X156449973Y-134786365D01*
X156277835Y-134901384D01*
X156277834Y-134901385D01*
X156277833Y-134901385D01*
X156086564Y-134980611D01*
X155883516Y-135021000D01*
X155676484Y-135021000D01*
X155473436Y-134980611D01*
X155282167Y-134901385D01*
X155282166Y-134901385D01*
X155282165Y-134901384D01*
X155110027Y-134786365D01*
X154963635Y-134639973D01*
X154848616Y-134467835D01*
X154848615Y-134467833D01*
X154769389Y-134276564D01*
X154729000Y-134073516D01*
X154729000Y-133866484D01*
X154769389Y-133663436D01*
X154848615Y-133472167D01*
X154963635Y-133300027D01*
X155110027Y-133153635D01*
X155282165Y-133038616D01*
X155282167Y-133038615D01*
X155473436Y-132959389D01*
X155676484Y-132919000D01*
X155883516Y-132919000D01*
X156086564Y-132959389D01*
X156086564Y-132959389D01*
G37*
G36*
X150086564Y-132959389D02*
G01*
X150277833Y-133038615D01*
X150277835Y-133038616D01*
X150449973Y-133153635D01*
X150596365Y-133300027D01*
X150711385Y-133472167D01*
X150790611Y-133663436D01*
X150831000Y-133866484D01*
X150831000Y-134073516D01*
X150790611Y-134276564D01*
X150711385Y-134467833D01*
X150711384Y-134467835D01*
X150596365Y-134639973D01*
X150449973Y-134786365D01*
X150277835Y-134901384D01*
X150277834Y-134901385D01*
X150277833Y-134901385D01*
X150086564Y-134980611D01*
X149883516Y-135021000D01*
X149676484Y-135021000D01*
X149473436Y-134980611D01*
X149282167Y-134901385D01*
X149282166Y-134901385D01*
X149282165Y-134901384D01*
X149110027Y-134786365D01*
X148963635Y-134639973D01*
X148848616Y-134467835D01*
X148848615Y-134467833D01*
X148769389Y-134276564D01*
X148729000Y-134073516D01*
X148729000Y-133866484D01*
X148769389Y-133663436D01*
X148848615Y-133472167D01*
X148963635Y-133300027D01*
X149110027Y-133153635D01*
X149282165Y-133038616D01*
X149282167Y-133038615D01*
X149473436Y-132959389D01*
X149676484Y-132919000D01*
X149883516Y-132919000D01*
X150086564Y-132959389D01*
X150086564Y-132959389D01*
G37*
G36*
X123496564Y-132959389D02*
G01*
X123687833Y-133038615D01*
X123687835Y-133038616D01*
X123859973Y-133153635D01*
X124006365Y-133300027D01*
X124121385Y-133472167D01*
X124200611Y-133663436D01*
X124241000Y-133866484D01*
X124241000Y-134073516D01*
X124200611Y-134276564D01*
X124121385Y-134467833D01*
X124121384Y-134467835D01*
X124006365Y-134639973D01*
X123859973Y-134786365D01*
X123687835Y-134901384D01*
X123687834Y-134901385D01*
X123687833Y-134901385D01*
X123496564Y-134980611D01*
X123293516Y-135021000D01*
X123086484Y-135021000D01*
X122883436Y-134980611D01*
X122692167Y-134901385D01*
X122692166Y-134901385D01*
X122692165Y-134901384D01*
X122520027Y-134786365D01*
X122373635Y-134639973D01*
X122258616Y-134467835D01*
X122258615Y-134467833D01*
X122179389Y-134276564D01*
X122139000Y-134073516D01*
X122139000Y-133866484D01*
X122179389Y-133663436D01*
X122258615Y-133472167D01*
X122373635Y-133300027D01*
X122520027Y-133153635D01*
X122692165Y-133038616D01*
X122692167Y-133038615D01*
X122883436Y-132959389D01*
X123086484Y-132919000D01*
X123293516Y-132919000D01*
X123496564Y-132959389D01*
X123496564Y-132959389D01*
G37*
G36*
X117496564Y-132959389D02*
G01*
X117687833Y-133038615D01*
X117687835Y-133038616D01*
X117859973Y-133153635D01*
X118006365Y-133300027D01*
X118121385Y-133472167D01*
X118200611Y-133663436D01*
X118241000Y-133866484D01*
X118241000Y-134073516D01*
X118200611Y-134276564D01*
X118121385Y-134467833D01*
X118121384Y-134467835D01*
X118006365Y-134639973D01*
X117859973Y-134786365D01*
X117687835Y-134901384D01*
X117687834Y-134901385D01*
X117687833Y-134901385D01*
X117496564Y-134980611D01*
X117293516Y-135021000D01*
X117086484Y-135021000D01*
X116883436Y-134980611D01*
X116692167Y-134901385D01*
X116692166Y-134901385D01*
X116692165Y-134901384D01*
X116520027Y-134786365D01*
X116373635Y-134639973D01*
X116258616Y-134467835D01*
X116258615Y-134467833D01*
X116179389Y-134276564D01*
X116139000Y-134073516D01*
X116139000Y-133866484D01*
X116179389Y-133663436D01*
X116258615Y-133472167D01*
X116373635Y-133300027D01*
X116520027Y-133153635D01*
X116692165Y-133038616D01*
X116692167Y-133038615D01*
X116883436Y-132959389D01*
X117086484Y-132919000D01*
X117293516Y-132919000D01*
X117496564Y-132959389D01*
X117496564Y-132959389D01*
G37*
G36*
X123496564Y-129459389D02*
G01*
X123687833Y-129538615D01*
X123687835Y-129538616D01*
X123859973Y-129653635D01*
X124006365Y-129800027D01*
X124121385Y-129972167D01*
X124200611Y-130163436D01*
X124241000Y-130366484D01*
X124241000Y-130573516D01*
X124200611Y-130776564D01*
X124121385Y-130967833D01*
X124121384Y-130967835D01*
X124006365Y-131139973D01*
X123859973Y-131286365D01*
X123687835Y-131401384D01*
X123687834Y-131401385D01*
X123687833Y-131401385D01*
X123496564Y-131480611D01*
X123293516Y-131521000D01*
X123086484Y-131521000D01*
X122883436Y-131480611D01*
X122692167Y-131401385D01*
X122692166Y-131401385D01*
X122692165Y-131401384D01*
X122520027Y-131286365D01*
X122373635Y-131139973D01*
X122258616Y-130967835D01*
X122258615Y-130967833D01*
X122179389Y-130776564D01*
X122139000Y-130573516D01*
X122139000Y-130366484D01*
X122179389Y-130163436D01*
X122258615Y-129972167D01*
X122373635Y-129800027D01*
X122520027Y-129653635D01*
X122692165Y-129538616D01*
X122692167Y-129538615D01*
X122883436Y-129459389D01*
X123086484Y-129419000D01*
X123293516Y-129419000D01*
X123496564Y-129459389D01*
X123496564Y-129459389D01*
G37*
G36*
X117496564Y-129459389D02*
G01*
X117687833Y-129538615D01*
X117687835Y-129538616D01*
X117859973Y-129653635D01*
X118006365Y-129800027D01*
X118121385Y-129972167D01*
X118200611Y-130163436D01*
X118241000Y-130366484D01*
X118241000Y-130573516D01*
X118200611Y-130776564D01*
X118121385Y-130967833D01*
X118121384Y-130967835D01*
X118006365Y-131139973D01*
X117859973Y-131286365D01*
X117687835Y-131401384D01*
X117687834Y-131401385D01*
X117687833Y-131401385D01*
X117496564Y-131480611D01*
X117293516Y-131521000D01*
X117086484Y-131521000D01*
X116883436Y-131480611D01*
X116692167Y-131401385D01*
X116692166Y-131401385D01*
X116692165Y-131401384D01*
X116520027Y-131286365D01*
X116373635Y-131139973D01*
X116258616Y-130967835D01*
X116258615Y-130967833D01*
X116179389Y-130776564D01*
X116139000Y-130573516D01*
X116139000Y-130366484D01*
X116179389Y-130163436D01*
X116258615Y-129972167D01*
X116373635Y-129800027D01*
X116520027Y-129653635D01*
X116692165Y-129538616D01*
X116692167Y-129538615D01*
X116883436Y-129459389D01*
X117086484Y-129419000D01*
X117293516Y-129419000D01*
X117496564Y-129459389D01*
X117496564Y-129459389D01*
G37*
G36*
X150086564Y-129459389D02*
G01*
X150277833Y-129538615D01*
X150277835Y-129538616D01*
X150449973Y-129653635D01*
X150596365Y-129800027D01*
X150711385Y-129972167D01*
X150790611Y-130163436D01*
X150831000Y-130366484D01*
X150831000Y-130573516D01*
X150790611Y-130776564D01*
X150711385Y-130967833D01*
X150711384Y-130967835D01*
X150596365Y-131139973D01*
X150449973Y-131286365D01*
X150277835Y-131401384D01*
X150277834Y-131401385D01*
X150277833Y-131401385D01*
X150086564Y-131480611D01*
X149883516Y-131521000D01*
X149676484Y-131521000D01*
X149473436Y-131480611D01*
X149282167Y-131401385D01*
X149282166Y-131401385D01*
X149282165Y-131401384D01*
X149110027Y-131286365D01*
X148963635Y-131139973D01*
X148848616Y-130967835D01*
X148848615Y-130967833D01*
X148769389Y-130776564D01*
X148729000Y-130573516D01*
X148729000Y-130366484D01*
X148769389Y-130163436D01*
X148848615Y-129972167D01*
X148963635Y-129800027D01*
X149110027Y-129653635D01*
X149282165Y-129538616D01*
X149282167Y-129538615D01*
X149473436Y-129459389D01*
X149676484Y-129419000D01*
X149883516Y-129419000D01*
X150086564Y-129459389D01*
X150086564Y-129459389D01*
G37*
G36*
X156086564Y-129459389D02*
G01*
X156277833Y-129538615D01*
X156277835Y-129538616D01*
X156449973Y-129653635D01*
X156596365Y-129800027D01*
X156711385Y-129972167D01*
X156790611Y-130163436D01*
X156831000Y-130366484D01*
X156831000Y-130573516D01*
X156790611Y-130776564D01*
X156711385Y-130967833D01*
X156711384Y-130967835D01*
X156596365Y-131139973D01*
X156449973Y-131286365D01*
X156277835Y-131401384D01*
X156277834Y-131401385D01*
X156277833Y-131401385D01*
X156086564Y-131480611D01*
X155883516Y-131521000D01*
X155676484Y-131521000D01*
X155473436Y-131480611D01*
X155282167Y-131401385D01*
X155282166Y-131401385D01*
X155282165Y-131401384D01*
X155110027Y-131286365D01*
X154963635Y-131139973D01*
X154848616Y-130967835D01*
X154848615Y-130967833D01*
X154769389Y-130776564D01*
X154729000Y-130573516D01*
X154729000Y-130366484D01*
X154769389Y-130163436D01*
X154848615Y-129972167D01*
X154963635Y-129800027D01*
X155110027Y-129653635D01*
X155282165Y-129538616D01*
X155282167Y-129538615D01*
X155473436Y-129459389D01*
X155676484Y-129419000D01*
X155883516Y-129419000D01*
X156086564Y-129459389D01*
X156086564Y-129459389D01*
G37*
G36*
X123496564Y-125959389D02*
G01*
X123687833Y-126038615D01*
X123687835Y-126038616D01*
X123859973Y-126153635D01*
X124006365Y-126300027D01*
X124121385Y-126472167D01*
X124200611Y-126663436D01*
X124241000Y-126866484D01*
X124241000Y-127073516D01*
X124200611Y-127276564D01*
X124121385Y-127467833D01*
X124121384Y-127467835D01*
X124006365Y-127639973D01*
X123859973Y-127786365D01*
X123687835Y-127901384D01*
X123687834Y-127901385D01*
X123687833Y-127901385D01*
X123496564Y-127980611D01*
X123293516Y-128021000D01*
X123086484Y-128021000D01*
X122883436Y-127980611D01*
X122692167Y-127901385D01*
X122692166Y-127901385D01*
X122692165Y-127901384D01*
X122520027Y-127786365D01*
X122373635Y-127639973D01*
X122258616Y-127467835D01*
X122258615Y-127467833D01*
X122179389Y-127276564D01*
X122139000Y-127073516D01*
X122139000Y-126866484D01*
X122179389Y-126663436D01*
X122258615Y-126472167D01*
X122373635Y-126300027D01*
X122520027Y-126153635D01*
X122692165Y-126038616D01*
X122692167Y-126038615D01*
X122883436Y-125959389D01*
X123086484Y-125919000D01*
X123293516Y-125919000D01*
X123496564Y-125959389D01*
X123496564Y-125959389D01*
G37*
G36*
X150086564Y-125959389D02*
G01*
X150277833Y-126038615D01*
X150277835Y-126038616D01*
X150449973Y-126153635D01*
X150596365Y-126300027D01*
X150711385Y-126472167D01*
X150790611Y-126663436D01*
X150831000Y-126866484D01*
X150831000Y-127073516D01*
X150790611Y-127276564D01*
X150711385Y-127467833D01*
X150711384Y-127467835D01*
X150596365Y-127639973D01*
X150449973Y-127786365D01*
X150277835Y-127901384D01*
X150277834Y-127901385D01*
X150277833Y-127901385D01*
X150086564Y-127980611D01*
X149883516Y-128021000D01*
X149676484Y-128021000D01*
X149473436Y-127980611D01*
X149282167Y-127901385D01*
X149282166Y-127901385D01*
X149282165Y-127901384D01*
X149110027Y-127786365D01*
X148963635Y-127639973D01*
X148848616Y-127467835D01*
X148848615Y-127467833D01*
X148769389Y-127276564D01*
X148729000Y-127073516D01*
X148729000Y-126866484D01*
X148769389Y-126663436D01*
X148848615Y-126472167D01*
X148963635Y-126300027D01*
X149110027Y-126153635D01*
X149282165Y-126038616D01*
X149282167Y-126038615D01*
X149473436Y-125959389D01*
X149676484Y-125919000D01*
X149883516Y-125919000D01*
X150086564Y-125959389D01*
X150086564Y-125959389D01*
G37*
G36*
X156086564Y-125959389D02*
G01*
X156277833Y-126038615D01*
X156277835Y-126038616D01*
X156449973Y-126153635D01*
X156596365Y-126300027D01*
X156711385Y-126472167D01*
X156790611Y-126663436D01*
X156831000Y-126866484D01*
X156831000Y-127073516D01*
X156790611Y-127276564D01*
X156711385Y-127467833D01*
X156711384Y-127467835D01*
X156596365Y-127639973D01*
X156449973Y-127786365D01*
X156277835Y-127901384D01*
X156277834Y-127901385D01*
X156277833Y-127901385D01*
X156086564Y-127980611D01*
X155883516Y-128021000D01*
X155676484Y-128021000D01*
X155473436Y-127980611D01*
X155282167Y-127901385D01*
X155282166Y-127901385D01*
X155282165Y-127901384D01*
X155110027Y-127786365D01*
X154963635Y-127639973D01*
X154848616Y-127467835D01*
X154848615Y-127467833D01*
X154769389Y-127276564D01*
X154729000Y-127073516D01*
X154729000Y-126866484D01*
X154769389Y-126663436D01*
X154848615Y-126472167D01*
X154963635Y-126300027D01*
X155110027Y-126153635D01*
X155282165Y-126038616D01*
X155282167Y-126038615D01*
X155473436Y-125959389D01*
X155676484Y-125919000D01*
X155883516Y-125919000D01*
X156086564Y-125959389D01*
X156086564Y-125959389D01*
G37*
G36*
X117496564Y-125959389D02*
G01*
X117687833Y-126038615D01*
X117687835Y-126038616D01*
X117859973Y-126153635D01*
X118006365Y-126300027D01*
X118121385Y-126472167D01*
X118200611Y-126663436D01*
X118241000Y-126866484D01*
X118241000Y-127073516D01*
X118200611Y-127276564D01*
X118121385Y-127467833D01*
X118121384Y-127467835D01*
X118006365Y-127639973D01*
X117859973Y-127786365D01*
X117687835Y-127901384D01*
X117687834Y-127901385D01*
X117687833Y-127901385D01*
X117496564Y-127980611D01*
X117293516Y-128021000D01*
X117086484Y-128021000D01*
X116883436Y-127980611D01*
X116692167Y-127901385D01*
X116692166Y-127901385D01*
X116692165Y-127901384D01*
X116520027Y-127786365D01*
X116373635Y-127639973D01*
X116258616Y-127467835D01*
X116258615Y-127467833D01*
X116179389Y-127276564D01*
X116139000Y-127073516D01*
X116139000Y-126866484D01*
X116179389Y-126663436D01*
X116258615Y-126472167D01*
X116373635Y-126300027D01*
X116520027Y-126153635D01*
X116692165Y-126038616D01*
X116692167Y-126038615D01*
X116883436Y-125959389D01*
X117086484Y-125919000D01*
X117293516Y-125919000D01*
X117496564Y-125959389D01*
X117496564Y-125959389D01*
G37*
G36*
X156086564Y-122459389D02*
G01*
X156277833Y-122538615D01*
X156277835Y-122538616D01*
X156449973Y-122653635D01*
X156596365Y-122800027D01*
X156711385Y-122972167D01*
X156790611Y-123163436D01*
X156831000Y-123366484D01*
X156831000Y-123573516D01*
X156790611Y-123776564D01*
X156711385Y-123967833D01*
X156711384Y-123967835D01*
X156596365Y-124139973D01*
X156449973Y-124286365D01*
X156277835Y-124401384D01*
X156277834Y-124401385D01*
X156277833Y-124401385D01*
X156086564Y-124480611D01*
X155883516Y-124521000D01*
X155676484Y-124521000D01*
X155473436Y-124480611D01*
X155282167Y-124401385D01*
X155282166Y-124401385D01*
X155282165Y-124401384D01*
X155110027Y-124286365D01*
X154963635Y-124139973D01*
X154848616Y-123967835D01*
X154848615Y-123967833D01*
X154769389Y-123776564D01*
X154729000Y-123573516D01*
X154729000Y-123366484D01*
X154769389Y-123163436D01*
X154848615Y-122972167D01*
X154963635Y-122800027D01*
X155110027Y-122653635D01*
X155282165Y-122538616D01*
X155282167Y-122538615D01*
X155473436Y-122459389D01*
X155676484Y-122419000D01*
X155883516Y-122419000D01*
X156086564Y-122459389D01*
X156086564Y-122459389D01*
G37*
G36*
X150086564Y-122459389D02*
G01*
X150277833Y-122538615D01*
X150277835Y-122538616D01*
X150449973Y-122653635D01*
X150596365Y-122800027D01*
X150711385Y-122972167D01*
X150790611Y-123163436D01*
X150831000Y-123366484D01*
X150831000Y-123573516D01*
X150790611Y-123776564D01*
X150711385Y-123967833D01*
X150711384Y-123967835D01*
X150596365Y-124139973D01*
X150449973Y-124286365D01*
X150277835Y-124401384D01*
X150277834Y-124401385D01*
X150277833Y-124401385D01*
X150086564Y-124480611D01*
X149883516Y-124521000D01*
X149676484Y-124521000D01*
X149473436Y-124480611D01*
X149282167Y-124401385D01*
X149282166Y-124401385D01*
X149282165Y-124401384D01*
X149110027Y-124286365D01*
X148963635Y-124139973D01*
X148848616Y-123967835D01*
X148848615Y-123967833D01*
X148769389Y-123776564D01*
X148729000Y-123573516D01*
X148729000Y-123366484D01*
X148769389Y-123163436D01*
X148848615Y-122972167D01*
X148963635Y-122800027D01*
X149110027Y-122653635D01*
X149282165Y-122538616D01*
X149282167Y-122538615D01*
X149473436Y-122459389D01*
X149676484Y-122419000D01*
X149883516Y-122419000D01*
X150086564Y-122459389D01*
X150086564Y-122459389D01*
G37*
G36*
X117496564Y-122459389D02*
G01*
X117687833Y-122538615D01*
X117687835Y-122538616D01*
X117859973Y-122653635D01*
X118006365Y-122800027D01*
X118121385Y-122972167D01*
X118200611Y-123163436D01*
X118241000Y-123366484D01*
X118241000Y-123573516D01*
X118200611Y-123776564D01*
X118121385Y-123967833D01*
X118121384Y-123967835D01*
X118006365Y-124139973D01*
X117859973Y-124286365D01*
X117687835Y-124401384D01*
X117687834Y-124401385D01*
X117687833Y-124401385D01*
X117496564Y-124480611D01*
X117293516Y-124521000D01*
X117086484Y-124521000D01*
X116883436Y-124480611D01*
X116692167Y-124401385D01*
X116692166Y-124401385D01*
X116692165Y-124401384D01*
X116520027Y-124286365D01*
X116373635Y-124139973D01*
X116258616Y-123967835D01*
X116258615Y-123967833D01*
X116179389Y-123776564D01*
X116139000Y-123573516D01*
X116139000Y-123366484D01*
X116179389Y-123163436D01*
X116258615Y-122972167D01*
X116373635Y-122800027D01*
X116520027Y-122653635D01*
X116692165Y-122538616D01*
X116692167Y-122538615D01*
X116883436Y-122459389D01*
X117086484Y-122419000D01*
X117293516Y-122419000D01*
X117496564Y-122459389D01*
X117496564Y-122459389D01*
G37*
G36*
X123496564Y-122459389D02*
G01*
X123687833Y-122538615D01*
X123687835Y-122538616D01*
X123859973Y-122653635D01*
X124006365Y-122800027D01*
X124121385Y-122972167D01*
X124200611Y-123163436D01*
X124241000Y-123366484D01*
X124241000Y-123573516D01*
X124200611Y-123776564D01*
X124121385Y-123967833D01*
X124121384Y-123967835D01*
X124006365Y-124139973D01*
X123859973Y-124286365D01*
X123687835Y-124401384D01*
X123687834Y-124401385D01*
X123687833Y-124401385D01*
X123496564Y-124480611D01*
X123293516Y-124521000D01*
X123086484Y-124521000D01*
X122883436Y-124480611D01*
X122692167Y-124401385D01*
X122692166Y-124401385D01*
X122692165Y-124401384D01*
X122520027Y-124286365D01*
X122373635Y-124139973D01*
X122258616Y-123967835D01*
X122258615Y-123967833D01*
X122179389Y-123776564D01*
X122139000Y-123573516D01*
X122139000Y-123366484D01*
X122179389Y-123163436D01*
X122258615Y-122972167D01*
X122373635Y-122800027D01*
X122520027Y-122653635D01*
X122692165Y-122538616D01*
X122692167Y-122538615D01*
X122883436Y-122459389D01*
X123086484Y-122419000D01*
X123293516Y-122419000D01*
X123496564Y-122459389D01*
X123496564Y-122459389D01*
G37*
G36*
X156086564Y-118959389D02*
G01*
X156277833Y-119038615D01*
X156277835Y-119038616D01*
X156449973Y-119153635D01*
X156596365Y-119300027D01*
X156711385Y-119472167D01*
X156790611Y-119663436D01*
X156831000Y-119866484D01*
X156831000Y-120073516D01*
X156790611Y-120276564D01*
X156711385Y-120467833D01*
X156711384Y-120467835D01*
X156596365Y-120639973D01*
X156449973Y-120786365D01*
X156277835Y-120901384D01*
X156277834Y-120901385D01*
X156277833Y-120901385D01*
X156086564Y-120980611D01*
X155883516Y-121021000D01*
X155676484Y-121021000D01*
X155473436Y-120980611D01*
X155282167Y-120901385D01*
X155282166Y-120901385D01*
X155282165Y-120901384D01*
X155110027Y-120786365D01*
X154963635Y-120639973D01*
X154848616Y-120467835D01*
X154848615Y-120467833D01*
X154769389Y-120276564D01*
X154729000Y-120073516D01*
X154729000Y-119866484D01*
X154769389Y-119663436D01*
X154848615Y-119472167D01*
X154963635Y-119300027D01*
X155110027Y-119153635D01*
X155282165Y-119038616D01*
X155282167Y-119038615D01*
X155473436Y-118959389D01*
X155676484Y-118919000D01*
X155883516Y-118919000D01*
X156086564Y-118959389D01*
X156086564Y-118959389D01*
G37*
G36*
X123496564Y-118959389D02*
G01*
X123687833Y-119038615D01*
X123687835Y-119038616D01*
X123859973Y-119153635D01*
X124006365Y-119300027D01*
X124121385Y-119472167D01*
X124200611Y-119663436D01*
X124241000Y-119866484D01*
X124241000Y-120073516D01*
X124200611Y-120276564D01*
X124121385Y-120467833D01*
X124121384Y-120467835D01*
X124006365Y-120639973D01*
X123859973Y-120786365D01*
X123687835Y-120901384D01*
X123687834Y-120901385D01*
X123687833Y-120901385D01*
X123496564Y-120980611D01*
X123293516Y-121021000D01*
X123086484Y-121021000D01*
X122883436Y-120980611D01*
X122692167Y-120901385D01*
X122692166Y-120901385D01*
X122692165Y-120901384D01*
X122520027Y-120786365D01*
X122373635Y-120639973D01*
X122258616Y-120467835D01*
X122258615Y-120467833D01*
X122179389Y-120276564D01*
X122139000Y-120073516D01*
X122139000Y-119866484D01*
X122179389Y-119663436D01*
X122258615Y-119472167D01*
X122373635Y-119300027D01*
X122520027Y-119153635D01*
X122692165Y-119038616D01*
X122692167Y-119038615D01*
X122883436Y-118959389D01*
X123086484Y-118919000D01*
X123293516Y-118919000D01*
X123496564Y-118959389D01*
X123496564Y-118959389D01*
G37*
G36*
X150086564Y-118959389D02*
G01*
X150277833Y-119038615D01*
X150277835Y-119038616D01*
X150449973Y-119153635D01*
X150596365Y-119300027D01*
X150711385Y-119472167D01*
X150790611Y-119663436D01*
X150831000Y-119866484D01*
X150831000Y-120073516D01*
X150790611Y-120276564D01*
X150711385Y-120467833D01*
X150711384Y-120467835D01*
X150596365Y-120639973D01*
X150449973Y-120786365D01*
X150277835Y-120901384D01*
X150277834Y-120901385D01*
X150277833Y-120901385D01*
X150086564Y-120980611D01*
X149883516Y-121021000D01*
X149676484Y-121021000D01*
X149473436Y-120980611D01*
X149282167Y-120901385D01*
X149282166Y-120901385D01*
X149282165Y-120901384D01*
X149110027Y-120786365D01*
X148963635Y-120639973D01*
X148848616Y-120467835D01*
X148848615Y-120467833D01*
X148769389Y-120276564D01*
X148729000Y-120073516D01*
X148729000Y-119866484D01*
X148769389Y-119663436D01*
X148848615Y-119472167D01*
X148963635Y-119300027D01*
X149110027Y-119153635D01*
X149282165Y-119038616D01*
X149282167Y-119038615D01*
X149473436Y-118959389D01*
X149676484Y-118919000D01*
X149883516Y-118919000D01*
X150086564Y-118959389D01*
X150086564Y-118959389D01*
G37*
G36*
X117496564Y-118959389D02*
G01*
X117687833Y-119038615D01*
X117687835Y-119038616D01*
X117859973Y-119153635D01*
X118006365Y-119300027D01*
X118121385Y-119472167D01*
X118200611Y-119663436D01*
X118241000Y-119866484D01*
X118241000Y-120073516D01*
X118200611Y-120276564D01*
X118121385Y-120467833D01*
X118121384Y-120467835D01*
X118006365Y-120639973D01*
X117859973Y-120786365D01*
X117687835Y-120901384D01*
X117687834Y-120901385D01*
X117687833Y-120901385D01*
X117496564Y-120980611D01*
X117293516Y-121021000D01*
X117086484Y-121021000D01*
X116883436Y-120980611D01*
X116692167Y-120901385D01*
X116692166Y-120901385D01*
X116692165Y-120901384D01*
X116520027Y-120786365D01*
X116373635Y-120639973D01*
X116258616Y-120467835D01*
X116258615Y-120467833D01*
X116179389Y-120276564D01*
X116139000Y-120073516D01*
X116139000Y-119866484D01*
X116179389Y-119663436D01*
X116258615Y-119472167D01*
X116373635Y-119300027D01*
X116520027Y-119153635D01*
X116692165Y-119038616D01*
X116692167Y-119038615D01*
X116883436Y-118959389D01*
X117086484Y-118919000D01*
X117293516Y-118919000D01*
X117496564Y-118959389D01*
X117496564Y-118959389D01*
G37*
G36*
X123496564Y-115459389D02*
G01*
X123687833Y-115538615D01*
X123687835Y-115538616D01*
X123859973Y-115653635D01*
X124006365Y-115800027D01*
X124121385Y-115972167D01*
X124200611Y-116163436D01*
X124241000Y-116366484D01*
X124241000Y-116573516D01*
X124200611Y-116776564D01*
X124121385Y-116967833D01*
X124121384Y-116967835D01*
X124006365Y-117139973D01*
X123859973Y-117286365D01*
X123687835Y-117401384D01*
X123687834Y-117401385D01*
X123687833Y-117401385D01*
X123496564Y-117480611D01*
X123293516Y-117521000D01*
X123086484Y-117521000D01*
X122883436Y-117480611D01*
X122692167Y-117401385D01*
X122692166Y-117401385D01*
X122692165Y-117401384D01*
X122520027Y-117286365D01*
X122373635Y-117139973D01*
X122258616Y-116967835D01*
X122258615Y-116967833D01*
X122179389Y-116776564D01*
X122139000Y-116573516D01*
X122139000Y-116366484D01*
X122179389Y-116163436D01*
X122258615Y-115972167D01*
X122373635Y-115800027D01*
X122520027Y-115653635D01*
X122692165Y-115538616D01*
X122692167Y-115538615D01*
X122883436Y-115459389D01*
X123086484Y-115419000D01*
X123293516Y-115419000D01*
X123496564Y-115459389D01*
X123496564Y-115459389D01*
G37*
G36*
X156086564Y-115459389D02*
G01*
X156277833Y-115538615D01*
X156277835Y-115538616D01*
X156449973Y-115653635D01*
X156596365Y-115800027D01*
X156711385Y-115972167D01*
X156790611Y-116163436D01*
X156831000Y-116366484D01*
X156831000Y-116573516D01*
X156790611Y-116776564D01*
X156711385Y-116967833D01*
X156711384Y-116967835D01*
X156596365Y-117139973D01*
X156449973Y-117286365D01*
X156277835Y-117401384D01*
X156277834Y-117401385D01*
X156277833Y-117401385D01*
X156086564Y-117480611D01*
X155883516Y-117521000D01*
X155676484Y-117521000D01*
X155473436Y-117480611D01*
X155282167Y-117401385D01*
X155282166Y-117401385D01*
X155282165Y-117401384D01*
X155110027Y-117286365D01*
X154963635Y-117139973D01*
X154848616Y-116967835D01*
X154848615Y-116967833D01*
X154769389Y-116776564D01*
X154729000Y-116573516D01*
X154729000Y-116366484D01*
X154769389Y-116163436D01*
X154848615Y-115972167D01*
X154963635Y-115800027D01*
X155110027Y-115653635D01*
X155282165Y-115538616D01*
X155282167Y-115538615D01*
X155473436Y-115459389D01*
X155676484Y-115419000D01*
X155883516Y-115419000D01*
X156086564Y-115459389D01*
X156086564Y-115459389D01*
G37*
G36*
X150086564Y-115459389D02*
G01*
X150277833Y-115538615D01*
X150277835Y-115538616D01*
X150449973Y-115653635D01*
X150596365Y-115800027D01*
X150711385Y-115972167D01*
X150790611Y-116163436D01*
X150831000Y-116366484D01*
X150831000Y-116573516D01*
X150790611Y-116776564D01*
X150711385Y-116967833D01*
X150711384Y-116967835D01*
X150596365Y-117139973D01*
X150449973Y-117286365D01*
X150277835Y-117401384D01*
X150277834Y-117401385D01*
X150277833Y-117401385D01*
X150086564Y-117480611D01*
X149883516Y-117521000D01*
X149676484Y-117521000D01*
X149473436Y-117480611D01*
X149282167Y-117401385D01*
X149282166Y-117401385D01*
X149282165Y-117401384D01*
X149110027Y-117286365D01*
X148963635Y-117139973D01*
X148848616Y-116967835D01*
X148848615Y-116967833D01*
X148769389Y-116776564D01*
X148729000Y-116573516D01*
X148729000Y-116366484D01*
X148769389Y-116163436D01*
X148848615Y-115972167D01*
X148963635Y-115800027D01*
X149110027Y-115653635D01*
X149282165Y-115538616D01*
X149282167Y-115538615D01*
X149473436Y-115459389D01*
X149676484Y-115419000D01*
X149883516Y-115419000D01*
X150086564Y-115459389D01*
X150086564Y-115459389D01*
G37*
G36*
X117496564Y-115459389D02*
G01*
X117687833Y-115538615D01*
X117687835Y-115538616D01*
X117859973Y-115653635D01*
X118006365Y-115800027D01*
X118121385Y-115972167D01*
X118200611Y-116163436D01*
X118241000Y-116366484D01*
X118241000Y-116573516D01*
X118200611Y-116776564D01*
X118121385Y-116967833D01*
X118121384Y-116967835D01*
X118006365Y-117139973D01*
X117859973Y-117286365D01*
X117687835Y-117401384D01*
X117687834Y-117401385D01*
X117687833Y-117401385D01*
X117496564Y-117480611D01*
X117293516Y-117521000D01*
X117086484Y-117521000D01*
X116883436Y-117480611D01*
X116692167Y-117401385D01*
X116692166Y-117401385D01*
X116692165Y-117401384D01*
X116520027Y-117286365D01*
X116373635Y-117139973D01*
X116258616Y-116967835D01*
X116258615Y-116967833D01*
X116179389Y-116776564D01*
X116139000Y-116573516D01*
X116139000Y-116366484D01*
X116179389Y-116163436D01*
X116258615Y-115972167D01*
X116373635Y-115800027D01*
X116520027Y-115653635D01*
X116692165Y-115538616D01*
X116692167Y-115538615D01*
X116883436Y-115459389D01*
X117086484Y-115419000D01*
X117293516Y-115419000D01*
X117496564Y-115459389D01*
X117496564Y-115459389D01*
G37*
G36*
X117496564Y-111959389D02*
G01*
X117687833Y-112038615D01*
X117687835Y-112038616D01*
X117859973Y-112153635D01*
X118006365Y-112300027D01*
X118121385Y-112472167D01*
X118200611Y-112663436D01*
X118241000Y-112866484D01*
X118241000Y-113073516D01*
X118200611Y-113276564D01*
X118121385Y-113467833D01*
X118121384Y-113467835D01*
X118006365Y-113639973D01*
X117859973Y-113786365D01*
X117687835Y-113901384D01*
X117687834Y-113901385D01*
X117687833Y-113901385D01*
X117496564Y-113980611D01*
X117293516Y-114021000D01*
X117086484Y-114021000D01*
X116883436Y-113980611D01*
X116692167Y-113901385D01*
X116692166Y-113901385D01*
X116692165Y-113901384D01*
X116520027Y-113786365D01*
X116373635Y-113639973D01*
X116258616Y-113467835D01*
X116258615Y-113467833D01*
X116179389Y-113276564D01*
X116139000Y-113073516D01*
X116139000Y-112866484D01*
X116179389Y-112663436D01*
X116258615Y-112472167D01*
X116373635Y-112300027D01*
X116520027Y-112153635D01*
X116692165Y-112038616D01*
X116692167Y-112038615D01*
X116883436Y-111959389D01*
X117086484Y-111919000D01*
X117293516Y-111919000D01*
X117496564Y-111959389D01*
X117496564Y-111959389D01*
G37*
G36*
X123496564Y-111959389D02*
G01*
X123687833Y-112038615D01*
X123687835Y-112038616D01*
X123859973Y-112153635D01*
X124006365Y-112300027D01*
X124121385Y-112472167D01*
X124200611Y-112663436D01*
X124241000Y-112866484D01*
X124241000Y-113073516D01*
X124200611Y-113276564D01*
X124121385Y-113467833D01*
X124121384Y-113467835D01*
X124006365Y-113639973D01*
X123859973Y-113786365D01*
X123687835Y-113901384D01*
X123687834Y-113901385D01*
X123687833Y-113901385D01*
X123496564Y-113980611D01*
X123293516Y-114021000D01*
X123086484Y-114021000D01*
X122883436Y-113980611D01*
X122692167Y-113901385D01*
X122692166Y-113901385D01*
X122692165Y-113901384D01*
X122520027Y-113786365D01*
X122373635Y-113639973D01*
X122258616Y-113467835D01*
X122258615Y-113467833D01*
X122179389Y-113276564D01*
X122139000Y-113073516D01*
X122139000Y-112866484D01*
X122179389Y-112663436D01*
X122258615Y-112472167D01*
X122373635Y-112300027D01*
X122520027Y-112153635D01*
X122692165Y-112038616D01*
X122692167Y-112038615D01*
X122883436Y-111959389D01*
X123086484Y-111919000D01*
X123293516Y-111919000D01*
X123496564Y-111959389D01*
X123496564Y-111959389D01*
G37*
G36*
X150086564Y-111959389D02*
G01*
X150277833Y-112038615D01*
X150277835Y-112038616D01*
X150449973Y-112153635D01*
X150596365Y-112300027D01*
X150711385Y-112472167D01*
X150790611Y-112663436D01*
X150831000Y-112866484D01*
X150831000Y-113073516D01*
X150790611Y-113276564D01*
X150711385Y-113467833D01*
X150711384Y-113467835D01*
X150596365Y-113639973D01*
X150449973Y-113786365D01*
X150277835Y-113901384D01*
X150277834Y-113901385D01*
X150277833Y-113901385D01*
X150086564Y-113980611D01*
X149883516Y-114021000D01*
X149676484Y-114021000D01*
X149473436Y-113980611D01*
X149282167Y-113901385D01*
X149282166Y-113901385D01*
X149282165Y-113901384D01*
X149110027Y-113786365D01*
X148963635Y-113639973D01*
X148848616Y-113467835D01*
X148848615Y-113467833D01*
X148769389Y-113276564D01*
X148729000Y-113073516D01*
X148729000Y-112866484D01*
X148769389Y-112663436D01*
X148848615Y-112472167D01*
X148963635Y-112300027D01*
X149110027Y-112153635D01*
X149282165Y-112038616D01*
X149282167Y-112038615D01*
X149473436Y-111959389D01*
X149676484Y-111919000D01*
X149883516Y-111919000D01*
X150086564Y-111959389D01*
X150086564Y-111959389D01*
G37*
G36*
X156086564Y-111959389D02*
G01*
X156277833Y-112038615D01*
X156277835Y-112038616D01*
X156449973Y-112153635D01*
X156596365Y-112300027D01*
X156711385Y-112472167D01*
X156790611Y-112663436D01*
X156831000Y-112866484D01*
X156831000Y-113073516D01*
X156790611Y-113276564D01*
X156711385Y-113467833D01*
X156711384Y-113467835D01*
X156596365Y-113639973D01*
X156449973Y-113786365D01*
X156277835Y-113901384D01*
X156277834Y-113901385D01*
X156277833Y-113901385D01*
X156086564Y-113980611D01*
X155883516Y-114021000D01*
X155676484Y-114021000D01*
X155473436Y-113980611D01*
X155282167Y-113901385D01*
X155282166Y-113901385D01*
X155282165Y-113901384D01*
X155110027Y-113786365D01*
X154963635Y-113639973D01*
X154848616Y-113467835D01*
X154848615Y-113467833D01*
X154769389Y-113276564D01*
X154729000Y-113073516D01*
X154729000Y-112866484D01*
X154769389Y-112663436D01*
X154848615Y-112472167D01*
X154963635Y-112300027D01*
X155110027Y-112153635D01*
X155282165Y-112038616D01*
X155282167Y-112038615D01*
X155473436Y-111959389D01*
X155676484Y-111919000D01*
X155883516Y-111919000D01*
X156086564Y-111959389D01*
X156086564Y-111959389D01*
G37*
G36*
X123496564Y-108459389D02*
G01*
X123687833Y-108538615D01*
X123687835Y-108538616D01*
X123859973Y-108653635D01*
X124006365Y-108800027D01*
X124121385Y-108972167D01*
X124200611Y-109163436D01*
X124241000Y-109366484D01*
X124241000Y-109573516D01*
X124200611Y-109776564D01*
X124121385Y-109967833D01*
X124121384Y-109967835D01*
X124006365Y-110139973D01*
X123859973Y-110286365D01*
X123687835Y-110401384D01*
X123687834Y-110401385D01*
X123687833Y-110401385D01*
X123496564Y-110480611D01*
X123293516Y-110521000D01*
X123086484Y-110521000D01*
X122883436Y-110480611D01*
X122692167Y-110401385D01*
X122692166Y-110401385D01*
X122692165Y-110401384D01*
X122520027Y-110286365D01*
X122373635Y-110139973D01*
X122258616Y-109967835D01*
X122258615Y-109967833D01*
X122179389Y-109776564D01*
X122139000Y-109573516D01*
X122139000Y-109366484D01*
X122179389Y-109163436D01*
X122258615Y-108972167D01*
X122373635Y-108800027D01*
X122520027Y-108653635D01*
X122692165Y-108538616D01*
X122692167Y-108538615D01*
X122883436Y-108459389D01*
X123086484Y-108419000D01*
X123293516Y-108419000D01*
X123496564Y-108459389D01*
X123496564Y-108459389D01*
G37*
G36*
X150086564Y-108459389D02*
G01*
X150277833Y-108538615D01*
X150277835Y-108538616D01*
X150449973Y-108653635D01*
X150596365Y-108800027D01*
X150711385Y-108972167D01*
X150790611Y-109163436D01*
X150831000Y-109366484D01*
X150831000Y-109573516D01*
X150790611Y-109776564D01*
X150711385Y-109967833D01*
X150711384Y-109967835D01*
X150596365Y-110139973D01*
X150449973Y-110286365D01*
X150277835Y-110401384D01*
X150277834Y-110401385D01*
X150277833Y-110401385D01*
X150086564Y-110480611D01*
X149883516Y-110521000D01*
X149676484Y-110521000D01*
X149473436Y-110480611D01*
X149282167Y-110401385D01*
X149282166Y-110401385D01*
X149282165Y-110401384D01*
X149110027Y-110286365D01*
X148963635Y-110139973D01*
X148848616Y-109967835D01*
X148848615Y-109967833D01*
X148769389Y-109776564D01*
X148729000Y-109573516D01*
X148729000Y-109366484D01*
X148769389Y-109163436D01*
X148848615Y-108972167D01*
X148963635Y-108800027D01*
X149110027Y-108653635D01*
X149282165Y-108538616D01*
X149282167Y-108538615D01*
X149473436Y-108459389D01*
X149676484Y-108419000D01*
X149883516Y-108419000D01*
X150086564Y-108459389D01*
X150086564Y-108459389D01*
G37*
G36*
X156086564Y-108459389D02*
G01*
X156277833Y-108538615D01*
X156277835Y-108538616D01*
X156449973Y-108653635D01*
X156596365Y-108800027D01*
X156711385Y-108972167D01*
X156790611Y-109163436D01*
X156831000Y-109366484D01*
X156831000Y-109573516D01*
X156790611Y-109776564D01*
X156711385Y-109967833D01*
X156711384Y-109967835D01*
X156596365Y-110139973D01*
X156449973Y-110286365D01*
X156277835Y-110401384D01*
X156277834Y-110401385D01*
X156277833Y-110401385D01*
X156086564Y-110480611D01*
X155883516Y-110521000D01*
X155676484Y-110521000D01*
X155473436Y-110480611D01*
X155282167Y-110401385D01*
X155282166Y-110401385D01*
X155282165Y-110401384D01*
X155110027Y-110286365D01*
X154963635Y-110139973D01*
X154848616Y-109967835D01*
X154848615Y-109967833D01*
X154769389Y-109776564D01*
X154729000Y-109573516D01*
X154729000Y-109366484D01*
X154769389Y-109163436D01*
X154848615Y-108972167D01*
X154963635Y-108800027D01*
X155110027Y-108653635D01*
X155282165Y-108538616D01*
X155282167Y-108538615D01*
X155473436Y-108459389D01*
X155676484Y-108419000D01*
X155883516Y-108419000D01*
X156086564Y-108459389D01*
X156086564Y-108459389D01*
G37*
G36*
X117496564Y-108459389D02*
G01*
X117687833Y-108538615D01*
X117687835Y-108538616D01*
X117859973Y-108653635D01*
X118006365Y-108800027D01*
X118121385Y-108972167D01*
X118200611Y-109163436D01*
X118241000Y-109366484D01*
X118241000Y-109573516D01*
X118200611Y-109776564D01*
X118121385Y-109967833D01*
X118121384Y-109967835D01*
X118006365Y-110139973D01*
X117859973Y-110286365D01*
X117687835Y-110401384D01*
X117687834Y-110401385D01*
X117687833Y-110401385D01*
X117496564Y-110480611D01*
X117293516Y-110521000D01*
X117086484Y-110521000D01*
X116883436Y-110480611D01*
X116692167Y-110401385D01*
X116692166Y-110401385D01*
X116692165Y-110401384D01*
X116520027Y-110286365D01*
X116373635Y-110139973D01*
X116258616Y-109967835D01*
X116258615Y-109967833D01*
X116179389Y-109776564D01*
X116139000Y-109573516D01*
X116139000Y-109366484D01*
X116179389Y-109163436D01*
X116258615Y-108972167D01*
X116373635Y-108800027D01*
X116520027Y-108653635D01*
X116692165Y-108538616D01*
X116692167Y-108538615D01*
X116883436Y-108459389D01*
X117086484Y-108419000D01*
X117293516Y-108419000D01*
X117496564Y-108459389D01*
X117496564Y-108459389D01*
G37*
G36*
X117496564Y-104959389D02*
G01*
X117687833Y-105038615D01*
X117687835Y-105038616D01*
X117859973Y-105153635D01*
X118006365Y-105300027D01*
X118121385Y-105472167D01*
X118200611Y-105663436D01*
X118241000Y-105866484D01*
X118241000Y-106073516D01*
X118200611Y-106276564D01*
X118121385Y-106467833D01*
X118121384Y-106467835D01*
X118006365Y-106639973D01*
X117859973Y-106786365D01*
X117687835Y-106901384D01*
X117687834Y-106901385D01*
X117687833Y-106901385D01*
X117496564Y-106980611D01*
X117293516Y-107021000D01*
X117086484Y-107021000D01*
X116883436Y-106980611D01*
X116692167Y-106901385D01*
X116692166Y-106901385D01*
X116692165Y-106901384D01*
X116520027Y-106786365D01*
X116373635Y-106639973D01*
X116258616Y-106467835D01*
X116258615Y-106467833D01*
X116179389Y-106276564D01*
X116139000Y-106073516D01*
X116139000Y-105866484D01*
X116179389Y-105663436D01*
X116258615Y-105472167D01*
X116373635Y-105300027D01*
X116520027Y-105153635D01*
X116692165Y-105038616D01*
X116692167Y-105038615D01*
X116883436Y-104959389D01*
X117086484Y-104919000D01*
X117293516Y-104919000D01*
X117496564Y-104959389D01*
X117496564Y-104959389D01*
G37*
G36*
X156086564Y-104959389D02*
G01*
X156277833Y-105038615D01*
X156277835Y-105038616D01*
X156449973Y-105153635D01*
X156596365Y-105300027D01*
X156711385Y-105472167D01*
X156790611Y-105663436D01*
X156831000Y-105866484D01*
X156831000Y-106073516D01*
X156790611Y-106276564D01*
X156711385Y-106467833D01*
X156711384Y-106467835D01*
X156596365Y-106639973D01*
X156449973Y-106786365D01*
X156277835Y-106901384D01*
X156277834Y-106901385D01*
X156277833Y-106901385D01*
X156086564Y-106980611D01*
X155883516Y-107021000D01*
X155676484Y-107021000D01*
X155473436Y-106980611D01*
X155282167Y-106901385D01*
X155282166Y-106901385D01*
X155282165Y-106901384D01*
X155110027Y-106786365D01*
X154963635Y-106639973D01*
X154848616Y-106467835D01*
X154848615Y-106467833D01*
X154769389Y-106276564D01*
X154729000Y-106073516D01*
X154729000Y-105866484D01*
X154769389Y-105663436D01*
X154848615Y-105472167D01*
X154963635Y-105300027D01*
X155110027Y-105153635D01*
X155282165Y-105038616D01*
X155282167Y-105038615D01*
X155473436Y-104959389D01*
X155676484Y-104919000D01*
X155883516Y-104919000D01*
X156086564Y-104959389D01*
X156086564Y-104959389D01*
G37*
G36*
X150086564Y-104959389D02*
G01*
X150277833Y-105038615D01*
X150277835Y-105038616D01*
X150449973Y-105153635D01*
X150596365Y-105300027D01*
X150711385Y-105472167D01*
X150790611Y-105663436D01*
X150831000Y-105866484D01*
X150831000Y-106073516D01*
X150790611Y-106276564D01*
X150711385Y-106467833D01*
X150711384Y-106467835D01*
X150596365Y-106639973D01*
X150449973Y-106786365D01*
X150277835Y-106901384D01*
X150277834Y-106901385D01*
X150277833Y-106901385D01*
X150086564Y-106980611D01*
X149883516Y-107021000D01*
X149676484Y-107021000D01*
X149473436Y-106980611D01*
X149282167Y-106901385D01*
X149282166Y-106901385D01*
X149282165Y-106901384D01*
X149110027Y-106786365D01*
X148963635Y-106639973D01*
X148848616Y-106467835D01*
X148848615Y-106467833D01*
X148769389Y-106276564D01*
X148729000Y-106073516D01*
X148729000Y-105866484D01*
X148769389Y-105663436D01*
X148848615Y-105472167D01*
X148963635Y-105300027D01*
X149110027Y-105153635D01*
X149282165Y-105038616D01*
X149282167Y-105038615D01*
X149473436Y-104959389D01*
X149676484Y-104919000D01*
X149883516Y-104919000D01*
X150086564Y-104959389D01*
X150086564Y-104959389D01*
G37*
G36*
X123496564Y-104959389D02*
G01*
X123687833Y-105038615D01*
X123687835Y-105038616D01*
X123859973Y-105153635D01*
X124006365Y-105300027D01*
X124121385Y-105472167D01*
X124200611Y-105663436D01*
X124241000Y-105866484D01*
X124241000Y-106073516D01*
X124200611Y-106276564D01*
X124121385Y-106467833D01*
X124121384Y-106467835D01*
X124006365Y-106639973D01*
X123859973Y-106786365D01*
X123687835Y-106901384D01*
X123687834Y-106901385D01*
X123687833Y-106901385D01*
X123496564Y-106980611D01*
X123293516Y-107021000D01*
X123086484Y-107021000D01*
X122883436Y-106980611D01*
X122692167Y-106901385D01*
X122692166Y-106901385D01*
X122692165Y-106901384D01*
X122520027Y-106786365D01*
X122373635Y-106639973D01*
X122258616Y-106467835D01*
X122258615Y-106467833D01*
X122179389Y-106276564D01*
X122139000Y-106073516D01*
X122139000Y-105866484D01*
X122179389Y-105663436D01*
X122258615Y-105472167D01*
X122373635Y-105300027D01*
X122520027Y-105153635D01*
X122692165Y-105038616D01*
X122692167Y-105038615D01*
X122883436Y-104959389D01*
X123086484Y-104919000D01*
X123293516Y-104919000D01*
X123496564Y-104959389D01*
X123496564Y-104959389D01*
G37*
G36*
X150086564Y-101459389D02*
G01*
X150277833Y-101538615D01*
X150277835Y-101538616D01*
X150449973Y-101653635D01*
X150596365Y-101800027D01*
X150711385Y-101972167D01*
X150790611Y-102163436D01*
X150831000Y-102366484D01*
X150831000Y-102573516D01*
X150790611Y-102776564D01*
X150711385Y-102967833D01*
X150711384Y-102967835D01*
X150596365Y-103139973D01*
X150449973Y-103286365D01*
X150277835Y-103401384D01*
X150277834Y-103401385D01*
X150277833Y-103401385D01*
X150086564Y-103480611D01*
X149883516Y-103521000D01*
X149676484Y-103521000D01*
X149473436Y-103480611D01*
X149282167Y-103401385D01*
X149282166Y-103401385D01*
X149282165Y-103401384D01*
X149110027Y-103286365D01*
X148963635Y-103139973D01*
X148848616Y-102967835D01*
X148848615Y-102967833D01*
X148769389Y-102776564D01*
X148729000Y-102573516D01*
X148729000Y-102366484D01*
X148769389Y-102163436D01*
X148848615Y-101972167D01*
X148963635Y-101800027D01*
X149110027Y-101653635D01*
X149282165Y-101538616D01*
X149282167Y-101538615D01*
X149473436Y-101459389D01*
X149676484Y-101419000D01*
X149883516Y-101419000D01*
X150086564Y-101459389D01*
X150086564Y-101459389D01*
G37*
G36*
X117496564Y-101459389D02*
G01*
X117687833Y-101538615D01*
X117687835Y-101538616D01*
X117859973Y-101653635D01*
X118006365Y-101800027D01*
X118121385Y-101972167D01*
X118200611Y-102163436D01*
X118241000Y-102366484D01*
X118241000Y-102573516D01*
X118200611Y-102776564D01*
X118121385Y-102967833D01*
X118121384Y-102967835D01*
X118006365Y-103139973D01*
X117859973Y-103286365D01*
X117687835Y-103401384D01*
X117687834Y-103401385D01*
X117687833Y-103401385D01*
X117496564Y-103480611D01*
X117293516Y-103521000D01*
X117086484Y-103521000D01*
X116883436Y-103480611D01*
X116692167Y-103401385D01*
X116692166Y-103401385D01*
X116692165Y-103401384D01*
X116520027Y-103286365D01*
X116373635Y-103139973D01*
X116258616Y-102967835D01*
X116258615Y-102967833D01*
X116179389Y-102776564D01*
X116139000Y-102573516D01*
X116139000Y-102366484D01*
X116179389Y-102163436D01*
X116258615Y-101972167D01*
X116373635Y-101800027D01*
X116520027Y-101653635D01*
X116692165Y-101538616D01*
X116692167Y-101538615D01*
X116883436Y-101459389D01*
X117086484Y-101419000D01*
X117293516Y-101419000D01*
X117496564Y-101459389D01*
X117496564Y-101459389D01*
G37*
G36*
X123496564Y-101459389D02*
G01*
X123687833Y-101538615D01*
X123687835Y-101538616D01*
X123859973Y-101653635D01*
X124006365Y-101800027D01*
X124121385Y-101972167D01*
X124200611Y-102163436D01*
X124241000Y-102366484D01*
X124241000Y-102573516D01*
X124200611Y-102776564D01*
X124121385Y-102967833D01*
X124121384Y-102967835D01*
X124006365Y-103139973D01*
X123859973Y-103286365D01*
X123687835Y-103401384D01*
X123687834Y-103401385D01*
X123687833Y-103401385D01*
X123496564Y-103480611D01*
X123293516Y-103521000D01*
X123086484Y-103521000D01*
X122883436Y-103480611D01*
X122692167Y-103401385D01*
X122692166Y-103401385D01*
X122692165Y-103401384D01*
X122520027Y-103286365D01*
X122373635Y-103139973D01*
X122258616Y-102967835D01*
X122258615Y-102967833D01*
X122179389Y-102776564D01*
X122139000Y-102573516D01*
X122139000Y-102366484D01*
X122179389Y-102163436D01*
X122258615Y-101972167D01*
X122373635Y-101800027D01*
X122520027Y-101653635D01*
X122692165Y-101538616D01*
X122692167Y-101538615D01*
X122883436Y-101459389D01*
X123086484Y-101419000D01*
X123293516Y-101419000D01*
X123496564Y-101459389D01*
X123496564Y-101459389D01*
G37*
G36*
X156086564Y-101459389D02*
G01*
X156277833Y-101538615D01*
X156277835Y-101538616D01*
X156449973Y-101653635D01*
X156596365Y-101800027D01*
X156711385Y-101972167D01*
X156790611Y-102163436D01*
X156831000Y-102366484D01*
X156831000Y-102573516D01*
X156790611Y-102776564D01*
X156711385Y-102967833D01*
X156711384Y-102967835D01*
X156596365Y-103139973D01*
X156449973Y-103286365D01*
X156277835Y-103401384D01*
X156277834Y-103401385D01*
X156277833Y-103401385D01*
X156086564Y-103480611D01*
X155883516Y-103521000D01*
X155676484Y-103521000D01*
X155473436Y-103480611D01*
X155282167Y-103401385D01*
X155282166Y-103401385D01*
X155282165Y-103401384D01*
X155110027Y-103286365D01*
X154963635Y-103139973D01*
X154848616Y-102967835D01*
X154848615Y-102967833D01*
X154769389Y-102776564D01*
X154729000Y-102573516D01*
X154729000Y-102366484D01*
X154769389Y-102163436D01*
X154848615Y-101972167D01*
X154963635Y-101800027D01*
X155110027Y-101653635D01*
X155282165Y-101538616D01*
X155282167Y-101538615D01*
X155473436Y-101459389D01*
X155676484Y-101419000D01*
X155883516Y-101419000D01*
X156086564Y-101459389D01*
X156086564Y-101459389D01*
G37*
G36*
X123496564Y-97959389D02*
G01*
X123687833Y-98038615D01*
X123687835Y-98038616D01*
X123859973Y-98153635D01*
X124006365Y-98300027D01*
X124121385Y-98472167D01*
X124200611Y-98663436D01*
X124241000Y-98866484D01*
X124241000Y-99073516D01*
X124200611Y-99276564D01*
X124121385Y-99467833D01*
X124121384Y-99467835D01*
X124006365Y-99639973D01*
X123859973Y-99786365D01*
X123687835Y-99901384D01*
X123687834Y-99901385D01*
X123687833Y-99901385D01*
X123496564Y-99980611D01*
X123293516Y-100021000D01*
X123086484Y-100021000D01*
X122883436Y-99980611D01*
X122692167Y-99901385D01*
X122692166Y-99901385D01*
X122692165Y-99901384D01*
X122520027Y-99786365D01*
X122373635Y-99639973D01*
X122258616Y-99467835D01*
X122258615Y-99467833D01*
X122179389Y-99276564D01*
X122139000Y-99073516D01*
X122139000Y-98866484D01*
X122179389Y-98663436D01*
X122258615Y-98472167D01*
X122373635Y-98300027D01*
X122520027Y-98153635D01*
X122692165Y-98038616D01*
X122692167Y-98038615D01*
X122883436Y-97959389D01*
X123086484Y-97919000D01*
X123293516Y-97919000D01*
X123496564Y-97959389D01*
X123496564Y-97959389D01*
G37*
G36*
X117496564Y-97959389D02*
G01*
X117687833Y-98038615D01*
X117687835Y-98038616D01*
X117859973Y-98153635D01*
X118006365Y-98300027D01*
X118121385Y-98472167D01*
X118200611Y-98663436D01*
X118241000Y-98866484D01*
X118241000Y-99073516D01*
X118200611Y-99276564D01*
X118121385Y-99467833D01*
X118121384Y-99467835D01*
X118006365Y-99639973D01*
X117859973Y-99786365D01*
X117687835Y-99901384D01*
X117687834Y-99901385D01*
X117687833Y-99901385D01*
X117496564Y-99980611D01*
X117293516Y-100021000D01*
X117086484Y-100021000D01*
X116883436Y-99980611D01*
X116692167Y-99901385D01*
X116692166Y-99901385D01*
X116692165Y-99901384D01*
X116520027Y-99786365D01*
X116373635Y-99639973D01*
X116258616Y-99467835D01*
X116258615Y-99467833D01*
X116179389Y-99276564D01*
X116139000Y-99073516D01*
X116139000Y-98866484D01*
X116179389Y-98663436D01*
X116258615Y-98472167D01*
X116373635Y-98300027D01*
X116520027Y-98153635D01*
X116692165Y-98038616D01*
X116692167Y-98038615D01*
X116883436Y-97959389D01*
X117086484Y-97919000D01*
X117293516Y-97919000D01*
X117496564Y-97959389D01*
X117496564Y-97959389D01*
G37*
G36*
X150086564Y-97959389D02*
G01*
X150277833Y-98038615D01*
X150277835Y-98038616D01*
X150449973Y-98153635D01*
X150596365Y-98300027D01*
X150711385Y-98472167D01*
X150790611Y-98663436D01*
X150831000Y-98866484D01*
X150831000Y-99073516D01*
X150790611Y-99276564D01*
X150711385Y-99467833D01*
X150711384Y-99467835D01*
X150596365Y-99639973D01*
X150449973Y-99786365D01*
X150277835Y-99901384D01*
X150277834Y-99901385D01*
X150277833Y-99901385D01*
X150086564Y-99980611D01*
X149883516Y-100021000D01*
X149676484Y-100021000D01*
X149473436Y-99980611D01*
X149282167Y-99901385D01*
X149282166Y-99901385D01*
X149282165Y-99901384D01*
X149110027Y-99786365D01*
X148963635Y-99639973D01*
X148848616Y-99467835D01*
X148848615Y-99467833D01*
X148769389Y-99276564D01*
X148729000Y-99073516D01*
X148729000Y-98866484D01*
X148769389Y-98663436D01*
X148848615Y-98472167D01*
X148963635Y-98300027D01*
X149110027Y-98153635D01*
X149282165Y-98038616D01*
X149282167Y-98038615D01*
X149473436Y-97959389D01*
X149676484Y-97919000D01*
X149883516Y-97919000D01*
X150086564Y-97959389D01*
X150086564Y-97959389D01*
G37*
G36*
X156086564Y-97959389D02*
G01*
X156277833Y-98038615D01*
X156277835Y-98038616D01*
X156449973Y-98153635D01*
X156596365Y-98300027D01*
X156711385Y-98472167D01*
X156790611Y-98663436D01*
X156831000Y-98866484D01*
X156831000Y-99073516D01*
X156790611Y-99276564D01*
X156711385Y-99467833D01*
X156711384Y-99467835D01*
X156596365Y-99639973D01*
X156449973Y-99786365D01*
X156277835Y-99901384D01*
X156277834Y-99901385D01*
X156277833Y-99901385D01*
X156086564Y-99980611D01*
X155883516Y-100021000D01*
X155676484Y-100021000D01*
X155473436Y-99980611D01*
X155282167Y-99901385D01*
X155282166Y-99901385D01*
X155282165Y-99901384D01*
X155110027Y-99786365D01*
X154963635Y-99639973D01*
X154848616Y-99467835D01*
X154848615Y-99467833D01*
X154769389Y-99276564D01*
X154729000Y-99073516D01*
X154729000Y-98866484D01*
X154769389Y-98663436D01*
X154848615Y-98472167D01*
X154963635Y-98300027D01*
X155110027Y-98153635D01*
X155282165Y-98038616D01*
X155282167Y-98038615D01*
X155473436Y-97959389D01*
X155676484Y-97919000D01*
X155883516Y-97919000D01*
X156086564Y-97959389D01*
X156086564Y-97959389D01*
G37*
G36*
X117496564Y-94459389D02*
G01*
X117687833Y-94538615D01*
X117687835Y-94538616D01*
X117859973Y-94653635D01*
X118006365Y-94800027D01*
X118121385Y-94972167D01*
X118200611Y-95163436D01*
X118241000Y-95366484D01*
X118241000Y-95573516D01*
X118200611Y-95776564D01*
X118121385Y-95967833D01*
X118121384Y-95967835D01*
X118006365Y-96139973D01*
X117859973Y-96286365D01*
X117687835Y-96401384D01*
X117687834Y-96401385D01*
X117687833Y-96401385D01*
X117496564Y-96480611D01*
X117293516Y-96521000D01*
X117086484Y-96521000D01*
X116883436Y-96480611D01*
X116692167Y-96401385D01*
X116692166Y-96401385D01*
X116692165Y-96401384D01*
X116520027Y-96286365D01*
X116373635Y-96139973D01*
X116258616Y-95967835D01*
X116258615Y-95967833D01*
X116179389Y-95776564D01*
X116139000Y-95573516D01*
X116139000Y-95366484D01*
X116179389Y-95163436D01*
X116258615Y-94972167D01*
X116373635Y-94800027D01*
X116520027Y-94653635D01*
X116692165Y-94538616D01*
X116692167Y-94538615D01*
X116883436Y-94459389D01*
X117086484Y-94419000D01*
X117293516Y-94419000D01*
X117496564Y-94459389D01*
X117496564Y-94459389D01*
G37*
G36*
X123496564Y-94459389D02*
G01*
X123687833Y-94538615D01*
X123687835Y-94538616D01*
X123859973Y-94653635D01*
X124006365Y-94800027D01*
X124121385Y-94972167D01*
X124200611Y-95163436D01*
X124241000Y-95366484D01*
X124241000Y-95573516D01*
X124200611Y-95776564D01*
X124121385Y-95967833D01*
X124121384Y-95967835D01*
X124006365Y-96139973D01*
X123859973Y-96286365D01*
X123687835Y-96401384D01*
X123687834Y-96401385D01*
X123687833Y-96401385D01*
X123496564Y-96480611D01*
X123293516Y-96521000D01*
X123086484Y-96521000D01*
X122883436Y-96480611D01*
X122692167Y-96401385D01*
X122692166Y-96401385D01*
X122692165Y-96401384D01*
X122520027Y-96286365D01*
X122373635Y-96139973D01*
X122258616Y-95967835D01*
X122258615Y-95967833D01*
X122179389Y-95776564D01*
X122139000Y-95573516D01*
X122139000Y-95366484D01*
X122179389Y-95163436D01*
X122258615Y-94972167D01*
X122373635Y-94800027D01*
X122520027Y-94653635D01*
X122692165Y-94538616D01*
X122692167Y-94538615D01*
X122883436Y-94459389D01*
X123086484Y-94419000D01*
X123293516Y-94419000D01*
X123496564Y-94459389D01*
X123496564Y-94459389D01*
G37*
G36*
X150086564Y-94459389D02*
G01*
X150277833Y-94538615D01*
X150277835Y-94538616D01*
X150449973Y-94653635D01*
X150596365Y-94800027D01*
X150711385Y-94972167D01*
X150790611Y-95163436D01*
X150831000Y-95366484D01*
X150831000Y-95573516D01*
X150790611Y-95776564D01*
X150711385Y-95967833D01*
X150711384Y-95967835D01*
X150596365Y-96139973D01*
X150449973Y-96286365D01*
X150277835Y-96401384D01*
X150277834Y-96401385D01*
X150277833Y-96401385D01*
X150086564Y-96480611D01*
X149883516Y-96521000D01*
X149676484Y-96521000D01*
X149473436Y-96480611D01*
X149282167Y-96401385D01*
X149282166Y-96401385D01*
X149282165Y-96401384D01*
X149110027Y-96286365D01*
X148963635Y-96139973D01*
X148848616Y-95967835D01*
X148848615Y-95967833D01*
X148769389Y-95776564D01*
X148729000Y-95573516D01*
X148729000Y-95366484D01*
X148769389Y-95163436D01*
X148848615Y-94972167D01*
X148963635Y-94800027D01*
X149110027Y-94653635D01*
X149282165Y-94538616D01*
X149282167Y-94538615D01*
X149473436Y-94459389D01*
X149676484Y-94419000D01*
X149883516Y-94419000D01*
X150086564Y-94459389D01*
X150086564Y-94459389D01*
G37*
G36*
X156086564Y-94459389D02*
G01*
X156277833Y-94538615D01*
X156277835Y-94538616D01*
X156449973Y-94653635D01*
X156596365Y-94800027D01*
X156711385Y-94972167D01*
X156790611Y-95163436D01*
X156831000Y-95366484D01*
X156831000Y-95573516D01*
X156790611Y-95776564D01*
X156711385Y-95967833D01*
X156711384Y-95967835D01*
X156596365Y-96139973D01*
X156449973Y-96286365D01*
X156277835Y-96401384D01*
X156277834Y-96401385D01*
X156277833Y-96401385D01*
X156086564Y-96480611D01*
X155883516Y-96521000D01*
X155676484Y-96521000D01*
X155473436Y-96480611D01*
X155282167Y-96401385D01*
X155282166Y-96401385D01*
X155282165Y-96401384D01*
X155110027Y-96286365D01*
X154963635Y-96139973D01*
X154848616Y-95967835D01*
X154848615Y-95967833D01*
X154769389Y-95776564D01*
X154729000Y-95573516D01*
X154729000Y-95366484D01*
X154769389Y-95163436D01*
X154848615Y-94972167D01*
X154963635Y-94800027D01*
X155110027Y-94653635D01*
X155282165Y-94538616D01*
X155282167Y-94538615D01*
X155473436Y-94459389D01*
X155676484Y-94419000D01*
X155883516Y-94419000D01*
X156086564Y-94459389D01*
X156086564Y-94459389D01*
G37*
G36*
X150086564Y-90959389D02*
G01*
X150277833Y-91038615D01*
X150277835Y-91038616D01*
X150449973Y-91153635D01*
X150596365Y-91300027D01*
X150711385Y-91472167D01*
X150790611Y-91663436D01*
X150831000Y-91866484D01*
X150831000Y-92073516D01*
X150790611Y-92276564D01*
X150711385Y-92467833D01*
X150711384Y-92467835D01*
X150596365Y-92639973D01*
X150449973Y-92786365D01*
X150277835Y-92901384D01*
X150277834Y-92901385D01*
X150277833Y-92901385D01*
X150086564Y-92980611D01*
X149883516Y-93021000D01*
X149676484Y-93021000D01*
X149473436Y-92980611D01*
X149282167Y-92901385D01*
X149282166Y-92901385D01*
X149282165Y-92901384D01*
X149110027Y-92786365D01*
X148963635Y-92639973D01*
X148848616Y-92467835D01*
X148848615Y-92467833D01*
X148769389Y-92276564D01*
X148729000Y-92073516D01*
X148729000Y-91866484D01*
X148769389Y-91663436D01*
X148848615Y-91472167D01*
X148963635Y-91300027D01*
X149110027Y-91153635D01*
X149282165Y-91038616D01*
X149282167Y-91038615D01*
X149473436Y-90959389D01*
X149676484Y-90919000D01*
X149883516Y-90919000D01*
X150086564Y-90959389D01*
X150086564Y-90959389D01*
G37*
G36*
X156086564Y-90959389D02*
G01*
X156277833Y-91038615D01*
X156277835Y-91038616D01*
X156449973Y-91153635D01*
X156596365Y-91300027D01*
X156711385Y-91472167D01*
X156790611Y-91663436D01*
X156831000Y-91866484D01*
X156831000Y-92073516D01*
X156790611Y-92276564D01*
X156711385Y-92467833D01*
X156711384Y-92467835D01*
X156596365Y-92639973D01*
X156449973Y-92786365D01*
X156277835Y-92901384D01*
X156277834Y-92901385D01*
X156277833Y-92901385D01*
X156086564Y-92980611D01*
X155883516Y-93021000D01*
X155676484Y-93021000D01*
X155473436Y-92980611D01*
X155282167Y-92901385D01*
X155282166Y-92901385D01*
X155282165Y-92901384D01*
X155110027Y-92786365D01*
X154963635Y-92639973D01*
X154848616Y-92467835D01*
X154848615Y-92467833D01*
X154769389Y-92276564D01*
X154729000Y-92073516D01*
X154729000Y-91866484D01*
X154769389Y-91663436D01*
X154848615Y-91472167D01*
X154963635Y-91300027D01*
X155110027Y-91153635D01*
X155282165Y-91038616D01*
X155282167Y-91038615D01*
X155473436Y-90959389D01*
X155676484Y-90919000D01*
X155883516Y-90919000D01*
X156086564Y-90959389D01*
X156086564Y-90959389D01*
G37*
G36*
X123496564Y-90959389D02*
G01*
X123687833Y-91038615D01*
X123687835Y-91038616D01*
X123859973Y-91153635D01*
X124006365Y-91300027D01*
X124121385Y-91472167D01*
X124200611Y-91663436D01*
X124241000Y-91866484D01*
X124241000Y-92073516D01*
X124200611Y-92276564D01*
X124121385Y-92467833D01*
X124121384Y-92467835D01*
X124006365Y-92639973D01*
X123859973Y-92786365D01*
X123687835Y-92901384D01*
X123687834Y-92901385D01*
X123687833Y-92901385D01*
X123496564Y-92980611D01*
X123293516Y-93021000D01*
X123086484Y-93021000D01*
X122883436Y-92980611D01*
X122692167Y-92901385D01*
X122692166Y-92901385D01*
X122692165Y-92901384D01*
X122520027Y-92786365D01*
X122373635Y-92639973D01*
X122258616Y-92467835D01*
X122258615Y-92467833D01*
X122179389Y-92276564D01*
X122139000Y-92073516D01*
X122139000Y-91866484D01*
X122179389Y-91663436D01*
X122258615Y-91472167D01*
X122373635Y-91300027D01*
X122520027Y-91153635D01*
X122692165Y-91038616D01*
X122692167Y-91038615D01*
X122883436Y-90959389D01*
X123086484Y-90919000D01*
X123293516Y-90919000D01*
X123496564Y-90959389D01*
X123496564Y-90959389D01*
G37*
G36*
X117496564Y-90959389D02*
G01*
X117687833Y-91038615D01*
X117687835Y-91038616D01*
X117859973Y-91153635D01*
X118006365Y-91300027D01*
X118121385Y-91472167D01*
X118200611Y-91663436D01*
X118241000Y-91866484D01*
X118241000Y-92073516D01*
X118200611Y-92276564D01*
X118121385Y-92467833D01*
X118121384Y-92467835D01*
X118006365Y-92639973D01*
X117859973Y-92786365D01*
X117687835Y-92901384D01*
X117687834Y-92901385D01*
X117687833Y-92901385D01*
X117496564Y-92980611D01*
X117293516Y-93021000D01*
X117086484Y-93021000D01*
X116883436Y-92980611D01*
X116692167Y-92901385D01*
X116692166Y-92901385D01*
X116692165Y-92901384D01*
X116520027Y-92786365D01*
X116373635Y-92639973D01*
X116258616Y-92467835D01*
X116258615Y-92467833D01*
X116179389Y-92276564D01*
X116139000Y-92073516D01*
X116139000Y-91866484D01*
X116179389Y-91663436D01*
X116258615Y-91472167D01*
X116373635Y-91300027D01*
X116520027Y-91153635D01*
X116692165Y-91038616D01*
X116692167Y-91038615D01*
X116883436Y-90959389D01*
X117086484Y-90919000D01*
X117293516Y-90919000D01*
X117496564Y-90959389D01*
X117496564Y-90959389D01*
G37*
G36*
X156086564Y-87459389D02*
G01*
X156277833Y-87538615D01*
X156277835Y-87538616D01*
X156449973Y-87653635D01*
X156596365Y-87800027D01*
X156711385Y-87972167D01*
X156790611Y-88163436D01*
X156831000Y-88366484D01*
X156831000Y-88573516D01*
X156790611Y-88776564D01*
X156711385Y-88967833D01*
X156711384Y-88967835D01*
X156596365Y-89139973D01*
X156449973Y-89286365D01*
X156277835Y-89401384D01*
X156277834Y-89401385D01*
X156277833Y-89401385D01*
X156086564Y-89480611D01*
X155883516Y-89521000D01*
X155676484Y-89521000D01*
X155473436Y-89480611D01*
X155282167Y-89401385D01*
X155282166Y-89401385D01*
X155282165Y-89401384D01*
X155110027Y-89286365D01*
X154963635Y-89139973D01*
X154848616Y-88967835D01*
X154848615Y-88967833D01*
X154769389Y-88776564D01*
X154729000Y-88573516D01*
X154729000Y-88366484D01*
X154769389Y-88163436D01*
X154848615Y-87972167D01*
X154963635Y-87800027D01*
X155110027Y-87653635D01*
X155282165Y-87538616D01*
X155282167Y-87538615D01*
X155473436Y-87459389D01*
X155676484Y-87419000D01*
X155883516Y-87419000D01*
X156086564Y-87459389D01*
X156086564Y-87459389D01*
G37*
G36*
X123496564Y-87459389D02*
G01*
X123687833Y-87538615D01*
X123687835Y-87538616D01*
X123859973Y-87653635D01*
X124006365Y-87800027D01*
X124121385Y-87972167D01*
X124200611Y-88163436D01*
X124241000Y-88366484D01*
X124241000Y-88573516D01*
X124200611Y-88776564D01*
X124121385Y-88967833D01*
X124121384Y-88967835D01*
X124006365Y-89139973D01*
X123859973Y-89286365D01*
X123687835Y-89401384D01*
X123687834Y-89401385D01*
X123687833Y-89401385D01*
X123496564Y-89480611D01*
X123293516Y-89521000D01*
X123086484Y-89521000D01*
X122883436Y-89480611D01*
X122692167Y-89401385D01*
X122692166Y-89401385D01*
X122692165Y-89401384D01*
X122520027Y-89286365D01*
X122373635Y-89139973D01*
X122258616Y-88967835D01*
X122258615Y-88967833D01*
X122179389Y-88776564D01*
X122139000Y-88573516D01*
X122139000Y-88366484D01*
X122179389Y-88163436D01*
X122258615Y-87972167D01*
X122373635Y-87800027D01*
X122520027Y-87653635D01*
X122692165Y-87538616D01*
X122692167Y-87538615D01*
X122883436Y-87459389D01*
X123086484Y-87419000D01*
X123293516Y-87419000D01*
X123496564Y-87459389D01*
X123496564Y-87459389D01*
G37*
G36*
X117496564Y-87459389D02*
G01*
X117687833Y-87538615D01*
X117687835Y-87538616D01*
X117859973Y-87653635D01*
X118006365Y-87800027D01*
X118121385Y-87972167D01*
X118200611Y-88163436D01*
X118241000Y-88366484D01*
X118241000Y-88573516D01*
X118200611Y-88776564D01*
X118121385Y-88967833D01*
X118121384Y-88967835D01*
X118006365Y-89139973D01*
X117859973Y-89286365D01*
X117687835Y-89401384D01*
X117687834Y-89401385D01*
X117687833Y-89401385D01*
X117496564Y-89480611D01*
X117293516Y-89521000D01*
X117086484Y-89521000D01*
X116883436Y-89480611D01*
X116692167Y-89401385D01*
X116692166Y-89401385D01*
X116692165Y-89401384D01*
X116520027Y-89286365D01*
X116373635Y-89139973D01*
X116258616Y-88967835D01*
X116258615Y-88967833D01*
X116179389Y-88776564D01*
X116139000Y-88573516D01*
X116139000Y-88366484D01*
X116179389Y-88163436D01*
X116258615Y-87972167D01*
X116373635Y-87800027D01*
X116520027Y-87653635D01*
X116692165Y-87538616D01*
X116692167Y-87538615D01*
X116883436Y-87459389D01*
X117086484Y-87419000D01*
X117293516Y-87419000D01*
X117496564Y-87459389D01*
X117496564Y-87459389D01*
G37*
G36*
X150086564Y-87459389D02*
G01*
X150277833Y-87538615D01*
X150277835Y-87538616D01*
X150449973Y-87653635D01*
X150596365Y-87800027D01*
X150711385Y-87972167D01*
X150790611Y-88163436D01*
X150831000Y-88366484D01*
X150831000Y-88573516D01*
X150790611Y-88776564D01*
X150711385Y-88967833D01*
X150711384Y-88967835D01*
X150596365Y-89139973D01*
X150449973Y-89286365D01*
X150277835Y-89401384D01*
X150277834Y-89401385D01*
X150277833Y-89401385D01*
X150086564Y-89480611D01*
X149883516Y-89521000D01*
X149676484Y-89521000D01*
X149473436Y-89480611D01*
X149282167Y-89401385D01*
X149282166Y-89401385D01*
X149282165Y-89401384D01*
X149110027Y-89286365D01*
X148963635Y-89139973D01*
X148848616Y-88967835D01*
X148848615Y-88967833D01*
X148769389Y-88776564D01*
X148729000Y-88573516D01*
X148729000Y-88366484D01*
X148769389Y-88163436D01*
X148848615Y-87972167D01*
X148963635Y-87800027D01*
X149110027Y-87653635D01*
X149282165Y-87538616D01*
X149282167Y-87538615D01*
X149473436Y-87459389D01*
X149676484Y-87419000D01*
X149883516Y-87419000D01*
X150086564Y-87459389D01*
X150086564Y-87459389D01*
G37*
G36*
X156086564Y-83959389D02*
G01*
X156277833Y-84038615D01*
X156277835Y-84038616D01*
X156429844Y-84140185D01*
X156449973Y-84153635D01*
X156596365Y-84300027D01*
X156711385Y-84472167D01*
X156790611Y-84663436D01*
X156831000Y-84866484D01*
X156831000Y-85073516D01*
X156790611Y-85276564D01*
X156711385Y-85467833D01*
X156711384Y-85467835D01*
X156596365Y-85639973D01*
X156449973Y-85786365D01*
X156277835Y-85901384D01*
X156277834Y-85901385D01*
X156277833Y-85901385D01*
X156086564Y-85980611D01*
X155883516Y-86021000D01*
X155676484Y-86021000D01*
X155473436Y-85980611D01*
X155282167Y-85901385D01*
X155282166Y-85901385D01*
X155282165Y-85901384D01*
X155110027Y-85786365D01*
X154963635Y-85639973D01*
X154848616Y-85467835D01*
X154848615Y-85467833D01*
X154769389Y-85276564D01*
X154729000Y-85073516D01*
X154729000Y-84866484D01*
X154769389Y-84663436D01*
X154848615Y-84472167D01*
X154963635Y-84300027D01*
X155110027Y-84153635D01*
X155130156Y-84140185D01*
X155282165Y-84038616D01*
X155282167Y-84038615D01*
X155473436Y-83959389D01*
X155676484Y-83919000D01*
X155883516Y-83919000D01*
X156086564Y-83959389D01*
X156086564Y-83959389D01*
G37*
G36*
X150086564Y-83959389D02*
G01*
X150277833Y-84038615D01*
X150277835Y-84038616D01*
X150429844Y-84140185D01*
X150449973Y-84153635D01*
X150596365Y-84300027D01*
X150711385Y-84472167D01*
X150790611Y-84663436D01*
X150831000Y-84866484D01*
X150831000Y-85073516D01*
X150790611Y-85276564D01*
X150711385Y-85467833D01*
X150711384Y-85467835D01*
X150596365Y-85639973D01*
X150449973Y-85786365D01*
X150277835Y-85901384D01*
X150277834Y-85901385D01*
X150277833Y-85901385D01*
X150086564Y-85980611D01*
X149883516Y-86021000D01*
X149676484Y-86021000D01*
X149473436Y-85980611D01*
X149282167Y-85901385D01*
X149282166Y-85901385D01*
X149282165Y-85901384D01*
X149110027Y-85786365D01*
X148963635Y-85639973D01*
X148848616Y-85467835D01*
X148848615Y-85467833D01*
X148769389Y-85276564D01*
X148729000Y-85073516D01*
X148729000Y-84866484D01*
X148769389Y-84663436D01*
X148848615Y-84472167D01*
X148963635Y-84300027D01*
X149110027Y-84153635D01*
X149130156Y-84140185D01*
X149282165Y-84038616D01*
X149282167Y-84038615D01*
X149473436Y-83959389D01*
X149676484Y-83919000D01*
X149883516Y-83919000D01*
X150086564Y-83959389D01*
X150086564Y-83959389D01*
G37*
G36*
X123496564Y-83959389D02*
G01*
X123687833Y-84038615D01*
X123687835Y-84038616D01*
X123839844Y-84140185D01*
X123859973Y-84153635D01*
X124006365Y-84300027D01*
X124121385Y-84472167D01*
X124200611Y-84663436D01*
X124241000Y-84866484D01*
X124241000Y-85073516D01*
X124200611Y-85276564D01*
X124121385Y-85467833D01*
X124121384Y-85467835D01*
X124006365Y-85639973D01*
X123859973Y-85786365D01*
X123687835Y-85901384D01*
X123687834Y-85901385D01*
X123687833Y-85901385D01*
X123496564Y-85980611D01*
X123293516Y-86021000D01*
X123086484Y-86021000D01*
X122883436Y-85980611D01*
X122692167Y-85901385D01*
X122692166Y-85901385D01*
X122692165Y-85901384D01*
X122520027Y-85786365D01*
X122373635Y-85639973D01*
X122258616Y-85467835D01*
X122258615Y-85467833D01*
X122179389Y-85276564D01*
X122139000Y-85073516D01*
X122139000Y-84866484D01*
X122179389Y-84663436D01*
X122258615Y-84472167D01*
X122373635Y-84300027D01*
X122520027Y-84153635D01*
X122540156Y-84140185D01*
X122692165Y-84038616D01*
X122692167Y-84038615D01*
X122883436Y-83959389D01*
X123086484Y-83919000D01*
X123293516Y-83919000D01*
X123496564Y-83959389D01*
X123496564Y-83959389D01*
G37*
G36*
X117496564Y-83959389D02*
G01*
X117687833Y-84038615D01*
X117687835Y-84038616D01*
X117839844Y-84140185D01*
X117859973Y-84153635D01*
X118006365Y-84300027D01*
X118121385Y-84472167D01*
X118200611Y-84663436D01*
X118241000Y-84866484D01*
X118241000Y-85073516D01*
X118200611Y-85276564D01*
X118121385Y-85467833D01*
X118121384Y-85467835D01*
X118006365Y-85639973D01*
X117859973Y-85786365D01*
X117687835Y-85901384D01*
X117687834Y-85901385D01*
X117687833Y-85901385D01*
X117496564Y-85980611D01*
X117293516Y-86021000D01*
X117086484Y-86021000D01*
X116883436Y-85980611D01*
X116692167Y-85901385D01*
X116692166Y-85901385D01*
X116692165Y-85901384D01*
X116520027Y-85786365D01*
X116373635Y-85639973D01*
X116258616Y-85467835D01*
X116258615Y-85467833D01*
X116179389Y-85276564D01*
X116139000Y-85073516D01*
X116139000Y-84866484D01*
X116179389Y-84663436D01*
X116258615Y-84472167D01*
X116373635Y-84300027D01*
X116520027Y-84153635D01*
X116540156Y-84140185D01*
X116692165Y-84038616D01*
X116692167Y-84038615D01*
X116883436Y-83959389D01*
X117086484Y-83919000D01*
X117293516Y-83919000D01*
X117496564Y-83959389D01*
X117496564Y-83959389D01*
G37*
G36*
X135521000Y-84401000D02*
G01*
X133719000Y-84401000D01*
X133719000Y-82599000D01*
X135521000Y-82599000D01*
X135521000Y-84401000D01*
X135521000Y-84401000D01*
G37*
G36*
X137270443Y-82605519D02*
G01*
X137336627Y-82612037D01*
X137506466Y-82663557D01*
X137662991Y-82747222D01*
X137698729Y-82776552D01*
X137800186Y-82859814D01*
X137883448Y-82961271D01*
X137912778Y-82997009D01*
X137996443Y-83153534D01*
X138047963Y-83323373D01*
X138065359Y-83500000D01*
X138047963Y-83676627D01*
X137996443Y-83846466D01*
X137912778Y-84002991D01*
X137883542Y-84038615D01*
X137800186Y-84140186D01*
X137698729Y-84223448D01*
X137662991Y-84252778D01*
X137506466Y-84336443D01*
X137336627Y-84387963D01*
X137270443Y-84394481D01*
X137204260Y-84401000D01*
X137115740Y-84401000D01*
X137049557Y-84394481D01*
X136983373Y-84387963D01*
X136813534Y-84336443D01*
X136657009Y-84252778D01*
X136621271Y-84223448D01*
X136519814Y-84140186D01*
X136436458Y-84038615D01*
X136407222Y-84002991D01*
X136323557Y-83846466D01*
X136272037Y-83676627D01*
X136254641Y-83500000D01*
X136272037Y-83323373D01*
X136323557Y-83153534D01*
X136407222Y-82997009D01*
X136436552Y-82961271D01*
X136519814Y-82859814D01*
X136621271Y-82776552D01*
X136657009Y-82747222D01*
X136813534Y-82663557D01*
X136983373Y-82612037D01*
X137049557Y-82605519D01*
X137115740Y-82599000D01*
X137204260Y-82599000D01*
X137270443Y-82605519D01*
X137270443Y-82605519D01*
G37*
G36*
X156086564Y-80459389D02*
G01*
X156277833Y-80538615D01*
X156277835Y-80538616D01*
X156449973Y-80653635D01*
X156596365Y-80800027D01*
X156711385Y-80972167D01*
X156790611Y-81163436D01*
X156831000Y-81366484D01*
X156831000Y-81573516D01*
X156790611Y-81776564D01*
X156711385Y-81967833D01*
X156711384Y-81967835D01*
X156596365Y-82139973D01*
X156449973Y-82286365D01*
X156277835Y-82401384D01*
X156277834Y-82401385D01*
X156277833Y-82401385D01*
X156086564Y-82480611D01*
X155883516Y-82521000D01*
X155676484Y-82521000D01*
X155473436Y-82480611D01*
X155282167Y-82401385D01*
X155282166Y-82401385D01*
X155282165Y-82401384D01*
X155110027Y-82286365D01*
X154963635Y-82139973D01*
X154848616Y-81967835D01*
X154848615Y-81967833D01*
X154769389Y-81776564D01*
X154729000Y-81573516D01*
X154729000Y-81366484D01*
X154769389Y-81163436D01*
X154848615Y-80972167D01*
X154963635Y-80800027D01*
X155110027Y-80653635D01*
X155282165Y-80538616D01*
X155282167Y-80538615D01*
X155473436Y-80459389D01*
X155676484Y-80419000D01*
X155883516Y-80419000D01*
X156086564Y-80459389D01*
X156086564Y-80459389D01*
G37*
G36*
X123496564Y-80459389D02*
G01*
X123687833Y-80538615D01*
X123687835Y-80538616D01*
X123859973Y-80653635D01*
X124006365Y-80800027D01*
X124121385Y-80972167D01*
X124200611Y-81163436D01*
X124241000Y-81366484D01*
X124241000Y-81573516D01*
X124200611Y-81776564D01*
X124121385Y-81967833D01*
X124121384Y-81967835D01*
X124006365Y-82139973D01*
X123859973Y-82286365D01*
X123687835Y-82401384D01*
X123687834Y-82401385D01*
X123687833Y-82401385D01*
X123496564Y-82480611D01*
X123293516Y-82521000D01*
X123086484Y-82521000D01*
X122883436Y-82480611D01*
X122692167Y-82401385D01*
X122692166Y-82401385D01*
X122692165Y-82401384D01*
X122520027Y-82286365D01*
X122373635Y-82139973D01*
X122258616Y-81967835D01*
X122258615Y-81967833D01*
X122179389Y-81776564D01*
X122139000Y-81573516D01*
X122139000Y-81366484D01*
X122179389Y-81163436D01*
X122258615Y-80972167D01*
X122373635Y-80800027D01*
X122520027Y-80653635D01*
X122692165Y-80538616D01*
X122692167Y-80538615D01*
X122883436Y-80459389D01*
X123086484Y-80419000D01*
X123293516Y-80419000D01*
X123496564Y-80459389D01*
X123496564Y-80459389D01*
G37*
G36*
X117496564Y-80459389D02*
G01*
X117687833Y-80538615D01*
X117687835Y-80538616D01*
X117859973Y-80653635D01*
X118006365Y-80800027D01*
X118121385Y-80972167D01*
X118200611Y-81163436D01*
X118241000Y-81366484D01*
X118241000Y-81573516D01*
X118200611Y-81776564D01*
X118121385Y-81967833D01*
X118121384Y-81967835D01*
X118006365Y-82139973D01*
X117859973Y-82286365D01*
X117687835Y-82401384D01*
X117687834Y-82401385D01*
X117687833Y-82401385D01*
X117496564Y-82480611D01*
X117293516Y-82521000D01*
X117086484Y-82521000D01*
X116883436Y-82480611D01*
X116692167Y-82401385D01*
X116692166Y-82401385D01*
X116692165Y-82401384D01*
X116520027Y-82286365D01*
X116373635Y-82139973D01*
X116258616Y-81967835D01*
X116258615Y-81967833D01*
X116179389Y-81776564D01*
X116139000Y-81573516D01*
X116139000Y-81366484D01*
X116179389Y-81163436D01*
X116258615Y-80972167D01*
X116373635Y-80800027D01*
X116520027Y-80653635D01*
X116692165Y-80538616D01*
X116692167Y-80538615D01*
X116883436Y-80459389D01*
X117086484Y-80419000D01*
X117293516Y-80419000D01*
X117496564Y-80459389D01*
X117496564Y-80459389D01*
G37*
G36*
X150086564Y-80459389D02*
G01*
X150277833Y-80538615D01*
X150277835Y-80538616D01*
X150449973Y-80653635D01*
X150596365Y-80800027D01*
X150711385Y-80972167D01*
X150790611Y-81163436D01*
X150831000Y-81366484D01*
X150831000Y-81573516D01*
X150790611Y-81776564D01*
X150711385Y-81967833D01*
X150711384Y-81967835D01*
X150596365Y-82139973D01*
X150449973Y-82286365D01*
X150277835Y-82401384D01*
X150277834Y-82401385D01*
X150277833Y-82401385D01*
X150086564Y-82480611D01*
X149883516Y-82521000D01*
X149676484Y-82521000D01*
X149473436Y-82480611D01*
X149282167Y-82401385D01*
X149282166Y-82401385D01*
X149282165Y-82401384D01*
X149110027Y-82286365D01*
X148963635Y-82139973D01*
X148848616Y-81967835D01*
X148848615Y-81967833D01*
X148769389Y-81776564D01*
X148729000Y-81573516D01*
X148729000Y-81366484D01*
X148769389Y-81163436D01*
X148848615Y-80972167D01*
X148963635Y-80800027D01*
X149110027Y-80653635D01*
X149282165Y-80538616D01*
X149282167Y-80538615D01*
X149473436Y-80459389D01*
X149676484Y-80419000D01*
X149883516Y-80419000D01*
X150086564Y-80459389D01*
X150086564Y-80459389D01*
G37*
G36*
X123496564Y-76959389D02*
G01*
X123687833Y-77038615D01*
X123687835Y-77038616D01*
X123859973Y-77153635D01*
X124006365Y-77300027D01*
X124083979Y-77416184D01*
X124121385Y-77472167D01*
X124200611Y-77663436D01*
X124241000Y-77866484D01*
X124241000Y-78073516D01*
X124200611Y-78276564D01*
X124121385Y-78467833D01*
X124121384Y-78467835D01*
X124006365Y-78639973D01*
X123859973Y-78786365D01*
X123687835Y-78901384D01*
X123687834Y-78901385D01*
X123687833Y-78901385D01*
X123496564Y-78980611D01*
X123293516Y-79021000D01*
X123086484Y-79021000D01*
X122883436Y-78980611D01*
X122692167Y-78901385D01*
X122692166Y-78901385D01*
X122692165Y-78901384D01*
X122520027Y-78786365D01*
X122373635Y-78639973D01*
X122258616Y-78467835D01*
X122258615Y-78467833D01*
X122179389Y-78276564D01*
X122139000Y-78073516D01*
X122139000Y-77866484D01*
X122179389Y-77663436D01*
X122258615Y-77472167D01*
X122296022Y-77416184D01*
X122373635Y-77300027D01*
X122520027Y-77153635D01*
X122692165Y-77038616D01*
X122692167Y-77038615D01*
X122883436Y-76959389D01*
X123086484Y-76919000D01*
X123293516Y-76919000D01*
X123496564Y-76959389D01*
X123496564Y-76959389D01*
G37*
G36*
X117496564Y-76959389D02*
G01*
X117687833Y-77038615D01*
X117687835Y-77038616D01*
X117859973Y-77153635D01*
X118006365Y-77300027D01*
X118083979Y-77416184D01*
X118121385Y-77472167D01*
X118200611Y-77663436D01*
X118241000Y-77866484D01*
X118241000Y-78073516D01*
X118200611Y-78276564D01*
X118121385Y-78467833D01*
X118121384Y-78467835D01*
X118006365Y-78639973D01*
X117859973Y-78786365D01*
X117687835Y-78901384D01*
X117687834Y-78901385D01*
X117687833Y-78901385D01*
X117496564Y-78980611D01*
X117293516Y-79021000D01*
X117086484Y-79021000D01*
X116883436Y-78980611D01*
X116692167Y-78901385D01*
X116692166Y-78901385D01*
X116692165Y-78901384D01*
X116520027Y-78786365D01*
X116373635Y-78639973D01*
X116258616Y-78467835D01*
X116258615Y-78467833D01*
X116179389Y-78276564D01*
X116139000Y-78073516D01*
X116139000Y-77866484D01*
X116179389Y-77663436D01*
X116258615Y-77472167D01*
X116296022Y-77416184D01*
X116373635Y-77300027D01*
X116520027Y-77153635D01*
X116692165Y-77038616D01*
X116692167Y-77038615D01*
X116883436Y-76959389D01*
X117086484Y-76919000D01*
X117293516Y-76919000D01*
X117496564Y-76959389D01*
X117496564Y-76959389D01*
G37*
G36*
X150086564Y-76959389D02*
G01*
X150277833Y-77038615D01*
X150277835Y-77038616D01*
X150449973Y-77153635D01*
X150596365Y-77300027D01*
X150673979Y-77416184D01*
X150711385Y-77472167D01*
X150790611Y-77663436D01*
X150831000Y-77866484D01*
X150831000Y-78073516D01*
X150790611Y-78276564D01*
X150711385Y-78467833D01*
X150711384Y-78467835D01*
X150596365Y-78639973D01*
X150449973Y-78786365D01*
X150277835Y-78901384D01*
X150277834Y-78901385D01*
X150277833Y-78901385D01*
X150086564Y-78980611D01*
X149883516Y-79021000D01*
X149676484Y-79021000D01*
X149473436Y-78980611D01*
X149282167Y-78901385D01*
X149282166Y-78901385D01*
X149282165Y-78901384D01*
X149110027Y-78786365D01*
X148963635Y-78639973D01*
X148848616Y-78467835D01*
X148848615Y-78467833D01*
X148769389Y-78276564D01*
X148729000Y-78073516D01*
X148729000Y-77866484D01*
X148769389Y-77663436D01*
X148848615Y-77472167D01*
X148886022Y-77416184D01*
X148963635Y-77300027D01*
X149110027Y-77153635D01*
X149282165Y-77038616D01*
X149282167Y-77038615D01*
X149473436Y-76959389D01*
X149676484Y-76919000D01*
X149883516Y-76919000D01*
X150086564Y-76959389D01*
X150086564Y-76959389D01*
G37*
G36*
X156086564Y-76959389D02*
G01*
X156277833Y-77038615D01*
X156277835Y-77038616D01*
X156449973Y-77153635D01*
X156596365Y-77300027D01*
X156673979Y-77416184D01*
X156711385Y-77472167D01*
X156790611Y-77663436D01*
X156831000Y-77866484D01*
X156831000Y-78073516D01*
X156790611Y-78276564D01*
X156711385Y-78467833D01*
X156711384Y-78467835D01*
X156596365Y-78639973D01*
X156449973Y-78786365D01*
X156277835Y-78901384D01*
X156277834Y-78901385D01*
X156277833Y-78901385D01*
X156086564Y-78980611D01*
X155883516Y-79021000D01*
X155676484Y-79021000D01*
X155473436Y-78980611D01*
X155282167Y-78901385D01*
X155282166Y-78901385D01*
X155282165Y-78901384D01*
X155110027Y-78786365D01*
X154963635Y-78639973D01*
X154848616Y-78467835D01*
X154848615Y-78467833D01*
X154769389Y-78276564D01*
X154729000Y-78073516D01*
X154729000Y-77866484D01*
X154769389Y-77663436D01*
X154848615Y-77472167D01*
X154886022Y-77416184D01*
X154963635Y-77300027D01*
X155110027Y-77153635D01*
X155282165Y-77038616D01*
X155282167Y-77038615D01*
X155473436Y-76959389D01*
X155676484Y-76919000D01*
X155883516Y-76919000D01*
X156086564Y-76959389D01*
X156086564Y-76959389D01*
G37*
G36*
X141248228Y-76681703D02*
G01*
X141403100Y-76745853D01*
X141542481Y-76838985D01*
X141661015Y-76957519D01*
X141754147Y-77096900D01*
X141818297Y-77251772D01*
X141851000Y-77416184D01*
X141851000Y-77583816D01*
X141818297Y-77748228D01*
X141754147Y-77903100D01*
X141661015Y-78042481D01*
X141542481Y-78161015D01*
X141403100Y-78254147D01*
X141248228Y-78318297D01*
X141083816Y-78351000D01*
X140916184Y-78351000D01*
X140751772Y-78318297D01*
X140596900Y-78254147D01*
X140457519Y-78161015D01*
X140338985Y-78042481D01*
X140245853Y-77903100D01*
X140181703Y-77748228D01*
X140149000Y-77583816D01*
X140149000Y-77416184D01*
X140181703Y-77251772D01*
X140245853Y-77096900D01*
X140338985Y-76957519D01*
X140457519Y-76838985D01*
X140596900Y-76745853D01*
X140751772Y-76681703D01*
X140916184Y-76649000D01*
X141083816Y-76649000D01*
X141248228Y-76681703D01*
X141248228Y-76681703D01*
G37*
G36*
X131006823Y-76661313D02*
G01*
X131167242Y-76709976D01*
X131234361Y-76745852D01*
X131315078Y-76788996D01*
X131444659Y-76895341D01*
X131551004Y-77024922D01*
X131551005Y-77024924D01*
X131630024Y-77172758D01*
X131678687Y-77333177D01*
X131695117Y-77500000D01*
X131678687Y-77666823D01*
X131630024Y-77827242D01*
X131589477Y-77903100D01*
X131551004Y-77975078D01*
X131444659Y-78104659D01*
X131315078Y-78211004D01*
X131315076Y-78211005D01*
X131167242Y-78290024D01*
X131006823Y-78338687D01*
X130881804Y-78351000D01*
X130798196Y-78351000D01*
X130673177Y-78338687D01*
X130512758Y-78290024D01*
X130364924Y-78211005D01*
X130364922Y-78211004D01*
X130235341Y-78104659D01*
X130128996Y-77975078D01*
X130090523Y-77903100D01*
X130049976Y-77827242D01*
X130001313Y-77666823D01*
X129984883Y-77500000D01*
X130001313Y-77333177D01*
X130049976Y-77172758D01*
X130128995Y-77024924D01*
X130128996Y-77024922D01*
X130235341Y-76895341D01*
X130364922Y-76788996D01*
X130445639Y-76745852D01*
X130512758Y-76709976D01*
X130673177Y-76661313D01*
X130798196Y-76649000D01*
X130881804Y-76649000D01*
X131006823Y-76661313D01*
X131006823Y-76661313D01*
G37*
G36*
X150086564Y-73459389D02*
G01*
X150277833Y-73538615D01*
X150277835Y-73538616D01*
X150449973Y-73653635D01*
X150596365Y-73800027D01*
X150711385Y-73972167D01*
X150790611Y-74163436D01*
X150831000Y-74366484D01*
X150831000Y-74573516D01*
X150790611Y-74776564D01*
X150711385Y-74967833D01*
X150711384Y-74967835D01*
X150596365Y-75139973D01*
X150449973Y-75286365D01*
X150277835Y-75401384D01*
X150277834Y-75401385D01*
X150277833Y-75401385D01*
X150086564Y-75480611D01*
X149883516Y-75521000D01*
X149676484Y-75521000D01*
X149473436Y-75480611D01*
X149282167Y-75401385D01*
X149282166Y-75401385D01*
X149282165Y-75401384D01*
X149110027Y-75286365D01*
X148963635Y-75139973D01*
X148848616Y-74967835D01*
X148848615Y-74967833D01*
X148769389Y-74776564D01*
X148729000Y-74573516D01*
X148729000Y-74366484D01*
X148769389Y-74163436D01*
X148848615Y-73972167D01*
X148963635Y-73800027D01*
X149110027Y-73653635D01*
X149282165Y-73538616D01*
X149282167Y-73538615D01*
X149473436Y-73459389D01*
X149676484Y-73419000D01*
X149883516Y-73419000D01*
X150086564Y-73459389D01*
X150086564Y-73459389D01*
G37*
G36*
X156086564Y-73459389D02*
G01*
X156277833Y-73538615D01*
X156277835Y-73538616D01*
X156449973Y-73653635D01*
X156596365Y-73800027D01*
X156711385Y-73972167D01*
X156790611Y-74163436D01*
X156831000Y-74366484D01*
X156831000Y-74573516D01*
X156790611Y-74776564D01*
X156711385Y-74967833D01*
X156711384Y-74967835D01*
X156596365Y-75139973D01*
X156449973Y-75286365D01*
X156277835Y-75401384D01*
X156277834Y-75401385D01*
X156277833Y-75401385D01*
X156086564Y-75480611D01*
X155883516Y-75521000D01*
X155676484Y-75521000D01*
X155473436Y-75480611D01*
X155282167Y-75401385D01*
X155282166Y-75401385D01*
X155282165Y-75401384D01*
X155110027Y-75286365D01*
X154963635Y-75139973D01*
X154848616Y-74967835D01*
X154848615Y-74967833D01*
X154769389Y-74776564D01*
X154729000Y-74573516D01*
X154729000Y-74366484D01*
X154769389Y-74163436D01*
X154848615Y-73972167D01*
X154963635Y-73800027D01*
X155110027Y-73653635D01*
X155282165Y-73538616D01*
X155282167Y-73538615D01*
X155473436Y-73459389D01*
X155676484Y-73419000D01*
X155883516Y-73419000D01*
X156086564Y-73459389D01*
X156086564Y-73459389D01*
G37*
G36*
X123496564Y-73459389D02*
G01*
X123687833Y-73538615D01*
X123687835Y-73538616D01*
X123859973Y-73653635D01*
X124006365Y-73800027D01*
X124121385Y-73972167D01*
X124200611Y-74163436D01*
X124241000Y-74366484D01*
X124241000Y-74573516D01*
X124200611Y-74776564D01*
X124121385Y-74967833D01*
X124121384Y-74967835D01*
X124006365Y-75139973D01*
X123859973Y-75286365D01*
X123687835Y-75401384D01*
X123687834Y-75401385D01*
X123687833Y-75401385D01*
X123496564Y-75480611D01*
X123293516Y-75521000D01*
X123086484Y-75521000D01*
X122883436Y-75480611D01*
X122692167Y-75401385D01*
X122692166Y-75401385D01*
X122692165Y-75401384D01*
X122520027Y-75286365D01*
X122373635Y-75139973D01*
X122258616Y-74967835D01*
X122258615Y-74967833D01*
X122179389Y-74776564D01*
X122139000Y-74573516D01*
X122139000Y-74366484D01*
X122179389Y-74163436D01*
X122258615Y-73972167D01*
X122373635Y-73800027D01*
X122520027Y-73653635D01*
X122692165Y-73538616D01*
X122692167Y-73538615D01*
X122883436Y-73459389D01*
X123086484Y-73419000D01*
X123293516Y-73419000D01*
X123496564Y-73459389D01*
X123496564Y-73459389D01*
G37*
G36*
X117496564Y-73459389D02*
G01*
X117687833Y-73538615D01*
X117687835Y-73538616D01*
X117859973Y-73653635D01*
X118006365Y-73800027D01*
X118121385Y-73972167D01*
X118200611Y-74163436D01*
X118241000Y-74366484D01*
X118241000Y-74573516D01*
X118200611Y-74776564D01*
X118121385Y-74967833D01*
X118121384Y-74967835D01*
X118006365Y-75139973D01*
X117859973Y-75286365D01*
X117687835Y-75401384D01*
X117687834Y-75401385D01*
X117687833Y-75401385D01*
X117496564Y-75480611D01*
X117293516Y-75521000D01*
X117086484Y-75521000D01*
X116883436Y-75480611D01*
X116692167Y-75401385D01*
X116692166Y-75401385D01*
X116692165Y-75401384D01*
X116520027Y-75286365D01*
X116373635Y-75139973D01*
X116258616Y-74967835D01*
X116258615Y-74967833D01*
X116179389Y-74776564D01*
X116139000Y-74573516D01*
X116139000Y-74366484D01*
X116179389Y-74163436D01*
X116258615Y-73972167D01*
X116373635Y-73800027D01*
X116520027Y-73653635D01*
X116692165Y-73538616D01*
X116692167Y-73538615D01*
X116883436Y-73459389D01*
X117086484Y-73419000D01*
X117293516Y-73419000D01*
X117496564Y-73459389D01*
X117496564Y-73459389D01*
G37*
M02*
