G04 #@! TF.GenerationSoftware,KiCad,Pcbnew,(5.1.4)-1*
G04 #@! TF.CreationDate,2020-01-22T18:28:44-05:00*
G04 #@! TF.ProjectId,Star CAN Board,53746172-2043-4414-9e20-426f6172642e,rev?*
G04 #@! TF.SameCoordinates,Original*
G04 #@! TF.FileFunction,Legend,Bot*
G04 #@! TF.FilePolarity,Positive*
%FSLAX46Y46*%
G04 Gerber Fmt 4.6, Leading zero omitted, Abs format (unit mm)*
G04 Created by KiCad (PCBNEW (5.1.4)-1) date 2020-01-22 18:28:44*
%MOMM*%
%LPD*%
G04 APERTURE LIST*
%ADD10C,0.150000*%
G04 APERTURE END LIST*
D10*
X137738552Y-87054895D02*
X137467619Y-87867695D01*
X137196685Y-87054895D01*
X136500000Y-87867695D02*
X136964457Y-87867695D01*
X136732228Y-87867695D02*
X136732228Y-87054895D01*
X136809638Y-87171009D01*
X136887047Y-87248419D01*
X136964457Y-87287123D01*
X136151657Y-87790285D02*
X136112952Y-87828990D01*
X136151657Y-87867695D01*
X136190361Y-87828990D01*
X136151657Y-87790285D01*
X136151657Y-87867695D01*
X135338857Y-87867695D02*
X135803314Y-87867695D01*
X135571085Y-87867695D02*
X135571085Y-87054895D01*
X135648495Y-87171009D01*
X135725904Y-87248419D01*
X135803314Y-87287123D01*
X139344800Y-85828990D02*
X139228685Y-85867695D01*
X139035161Y-85867695D01*
X138957752Y-85828990D01*
X138919047Y-85790285D01*
X138880342Y-85712876D01*
X138880342Y-85635466D01*
X138919047Y-85558057D01*
X138957752Y-85519352D01*
X139035161Y-85480647D01*
X139189980Y-85441942D01*
X139267390Y-85403238D01*
X139306095Y-85364533D01*
X139344800Y-85287123D01*
X139344800Y-85209714D01*
X139306095Y-85132304D01*
X139267390Y-85093600D01*
X139189980Y-85054895D01*
X138996457Y-85054895D01*
X138880342Y-85093600D01*
X138067542Y-85790285D02*
X138106247Y-85828990D01*
X138222361Y-85867695D01*
X138299771Y-85867695D01*
X138415885Y-85828990D01*
X138493295Y-85751580D01*
X138532000Y-85674171D01*
X138570704Y-85519352D01*
X138570704Y-85403238D01*
X138532000Y-85248419D01*
X138493295Y-85171009D01*
X138415885Y-85093600D01*
X138299771Y-85054895D01*
X138222361Y-85054895D01*
X138106247Y-85093600D01*
X138067542Y-85132304D01*
X137448266Y-85441942D02*
X137719200Y-85441942D01*
X137719200Y-85867695D02*
X137719200Y-85054895D01*
X137332152Y-85054895D01*
X136441942Y-85132304D02*
X136403238Y-85093600D01*
X136325828Y-85054895D01*
X136132304Y-85054895D01*
X136054895Y-85093600D01*
X136016190Y-85132304D01*
X135977485Y-85209714D01*
X135977485Y-85287123D01*
X136016190Y-85403238D01*
X136480647Y-85867695D01*
X135977485Y-85867695D01*
X135474323Y-85054895D02*
X135396914Y-85054895D01*
X135319504Y-85093600D01*
X135280800Y-85132304D01*
X135242095Y-85209714D01*
X135203390Y-85364533D01*
X135203390Y-85558057D01*
X135242095Y-85712876D01*
X135280800Y-85790285D01*
X135319504Y-85828990D01*
X135396914Y-85867695D01*
X135474323Y-85867695D01*
X135551733Y-85828990D01*
X135590438Y-85790285D01*
X135629142Y-85712876D01*
X135667847Y-85558057D01*
X135667847Y-85364533D01*
X135629142Y-85209714D01*
X135590438Y-85132304D01*
X135551733Y-85093600D01*
X135474323Y-85054895D01*
X134893752Y-85132304D02*
X134855047Y-85093600D01*
X134777638Y-85054895D01*
X134584114Y-85054895D01*
X134506704Y-85093600D01*
X134468000Y-85132304D01*
X134429295Y-85209714D01*
X134429295Y-85287123D01*
X134468000Y-85403238D01*
X134932457Y-85867695D01*
X134429295Y-85867695D01*
X133926133Y-85054895D02*
X133848723Y-85054895D01*
X133771314Y-85093600D01*
X133732609Y-85132304D01*
X133693904Y-85209714D01*
X133655200Y-85364533D01*
X133655200Y-85558057D01*
X133693904Y-85712876D01*
X133732609Y-85790285D01*
X133771314Y-85828990D01*
X133848723Y-85867695D01*
X133926133Y-85867695D01*
X134003542Y-85828990D01*
X134042247Y-85790285D01*
X134080952Y-85712876D01*
X134119657Y-85558057D01*
X134119657Y-85364533D01*
X134080952Y-85209714D01*
X134042247Y-85132304D01*
X134003542Y-85093600D01*
X133926133Y-85054895D01*
M02*
