G04 #@! TF.GenerationSoftware,KiCad,Pcbnew,(5.1.4)-1*
G04 #@! TF.CreationDate,2020-01-22T18:28:44-05:00*
G04 #@! TF.ProjectId,Star CAN Board,53746172-2043-4414-9e20-426f6172642e,rev?*
G04 #@! TF.SameCoordinates,Original*
G04 #@! TF.FileFunction,Copper,L1,Top*
G04 #@! TF.FilePolarity,Positive*
%FSLAX46Y46*%
G04 Gerber Fmt 4.6, Leading zero omitted, Abs format (unit mm)*
G04 Created by KiCad (PCBNEW (5.1.4)-1) date 2020-01-22 18:28:44*
%MOMM*%
%LPD*%
G04 APERTURE LIST*
%ADD10O,1.600000X1.600000*%
%ADD11C,1.600000*%
%ADD12C,2.000000*%
%ADD13R,1.700000X1.700000*%
%ADD14O,1.700000X1.700000*%
%ADD15C,0.250000*%
G04 APERTURE END LIST*
D10*
X130840000Y-77500000D03*
D11*
X141000000Y-77500000D03*
D12*
X123190000Y-74470000D03*
X123190000Y-77970000D03*
X123190000Y-81470000D03*
X123190000Y-84970000D03*
X123190000Y-88470000D03*
X123190000Y-105970000D03*
X123190000Y-91970000D03*
X123190000Y-102470000D03*
X123190000Y-95470000D03*
X123190000Y-98970000D03*
X123190000Y-133970000D03*
X123190000Y-130470000D03*
X123190000Y-126970000D03*
X123190000Y-137470000D03*
X123190000Y-140970000D03*
X123190000Y-123470000D03*
X123190000Y-109470000D03*
X123190000Y-119970000D03*
X123190000Y-112970000D03*
X123190000Y-116470000D03*
X117190000Y-112970000D03*
X117190000Y-77970000D03*
X117190000Y-133970000D03*
X117190000Y-81470000D03*
X117190000Y-126970000D03*
X117190000Y-74470000D03*
X117190000Y-98970000D03*
X117190000Y-84970000D03*
X117190000Y-137470000D03*
X117190000Y-88470000D03*
X117190000Y-130470000D03*
X117190000Y-95470000D03*
X117190000Y-105970000D03*
X117190000Y-119970000D03*
X117190000Y-102470000D03*
X117190000Y-140970000D03*
X117190000Y-123470000D03*
X117190000Y-91970000D03*
X117190000Y-109470000D03*
X117190000Y-116470000D03*
X155780000Y-98970000D03*
X155780000Y-105970000D03*
X155780000Y-123470000D03*
X155780000Y-91970000D03*
X155780000Y-74470000D03*
X155780000Y-112970000D03*
X155780000Y-95470000D03*
X155780000Y-109470000D03*
X155780000Y-119970000D03*
X155780000Y-84970000D03*
X155780000Y-126970000D03*
X155780000Y-77970000D03*
X155780000Y-130470000D03*
X155780000Y-116470000D03*
X155780000Y-140970000D03*
X155780000Y-88470000D03*
X155780000Y-133970000D03*
X155780000Y-81470000D03*
X155780000Y-137470000D03*
X155780000Y-102470000D03*
X149780000Y-98970000D03*
X149780000Y-102470000D03*
X149780000Y-95470000D03*
X149780000Y-105970000D03*
X149780000Y-91970000D03*
X149780000Y-74470000D03*
X149780000Y-77970000D03*
X149780000Y-88470000D03*
X149780000Y-84970000D03*
X149780000Y-81470000D03*
X149780000Y-116470000D03*
X149780000Y-119970000D03*
X149780000Y-112970000D03*
X149780000Y-123470000D03*
X149780000Y-109470000D03*
X149780000Y-126970000D03*
X149780000Y-130470000D03*
X149780000Y-133970000D03*
X149780000Y-137470000D03*
X149780000Y-140970000D03*
D13*
X134620000Y-83500000D03*
D14*
X137160000Y-83500000D03*
D15*
X123190000Y-74470000D02*
X117190000Y-74470000D01*
X123190000Y-81470000D02*
X117190000Y-81470000D01*
X123190000Y-88470000D02*
X117190000Y-88470000D01*
X123190000Y-95470000D02*
X117190000Y-95470000D01*
X123190000Y-102470000D02*
X117190000Y-102470000D01*
X123190000Y-109470000D02*
X117190000Y-109470000D01*
X123190000Y-116470000D02*
X117190000Y-116470000D01*
X123190000Y-123470000D02*
X117190000Y-123470000D01*
X123190000Y-130470000D02*
X117190000Y-130470000D01*
X123190000Y-137470000D02*
X117190000Y-137470000D01*
X123190000Y-74470000D02*
X125270000Y-74470000D01*
X125270000Y-74470000D02*
X125730000Y-74930000D01*
X125540000Y-81470000D02*
X125730000Y-81280000D01*
X123190000Y-81470000D02*
X125540000Y-81470000D01*
X125730000Y-74930000D02*
X125730000Y-81280000D01*
X125300000Y-88470000D02*
X125730000Y-88900000D01*
X123190000Y-88470000D02*
X125300000Y-88470000D01*
X125730000Y-81280000D02*
X125730000Y-88900000D01*
X123190000Y-95470000D02*
X125510000Y-95470000D01*
X125510000Y-95470000D02*
X125730000Y-95250000D01*
X123190000Y-102470000D02*
X125330000Y-102470000D01*
X125330000Y-102470000D02*
X125730000Y-102870000D01*
X125480000Y-109470000D02*
X125730000Y-109220000D01*
X123190000Y-109470000D02*
X125480000Y-109470000D01*
X125730000Y-88900000D02*
X125730000Y-109220000D01*
X125360000Y-116470000D02*
X125730000Y-116840000D01*
X123190000Y-116470000D02*
X125360000Y-116470000D01*
X125730000Y-109220000D02*
X125730000Y-116840000D01*
X125450000Y-123470000D02*
X125730000Y-123190000D01*
X123190000Y-123470000D02*
X125450000Y-123470000D01*
X125730000Y-116840000D02*
X125730000Y-123190000D01*
X125390000Y-130470000D02*
X125730000Y-130810000D01*
X123190000Y-130470000D02*
X125390000Y-130470000D01*
X125730000Y-123190000D02*
X125730000Y-130810000D01*
X125420000Y-137470000D02*
X125730000Y-137160000D01*
X123190000Y-137470000D02*
X125420000Y-137470000D01*
X154365787Y-77970000D02*
X149780000Y-77970000D01*
X155780000Y-77970000D02*
X154365787Y-77970000D01*
X155780000Y-84970000D02*
X149780000Y-84970000D01*
X154365787Y-91970000D02*
X149780000Y-91970000D01*
X155780000Y-91970000D02*
X154365787Y-91970000D01*
X155780000Y-98970000D02*
X149780000Y-98970000D01*
X154365787Y-105970000D02*
X149780000Y-105970000D01*
X155780000Y-105970000D02*
X154365787Y-105970000D01*
X155780000Y-112970000D02*
X149780000Y-112970000D01*
X155780000Y-119970000D02*
X149780000Y-119970000D01*
X155780000Y-126970000D02*
X149780000Y-126970000D01*
X155780000Y-133970000D02*
X149780000Y-133970000D01*
X155780000Y-140970000D02*
X149780000Y-140970000D01*
X149780000Y-77970000D02*
X148090000Y-77970000D01*
X148090000Y-77970000D02*
X147320000Y-78740000D01*
X147320000Y-140970000D02*
X149780000Y-140970000D01*
X149780000Y-133970000D02*
X147970000Y-133970000D01*
X147970000Y-133970000D02*
X147320000Y-134620000D01*
X147350000Y-126970000D02*
X147320000Y-127000000D01*
X149780000Y-126970000D02*
X147350000Y-126970000D01*
X147320000Y-127000000D02*
X147320000Y-134620000D01*
X148000000Y-119970000D02*
X147320000Y-120650000D01*
X149780000Y-119970000D02*
X148000000Y-119970000D01*
X147320000Y-120650000D02*
X147320000Y-127000000D01*
X147380000Y-112970000D02*
X147320000Y-113030000D01*
X149780000Y-112970000D02*
X147380000Y-112970000D01*
X147320000Y-113030000D02*
X147320000Y-120650000D01*
X148030000Y-105970000D02*
X147320000Y-106680000D01*
X149780000Y-105970000D02*
X148030000Y-105970000D01*
X147320000Y-106680000D02*
X147320000Y-113030000D01*
X147410000Y-98970000D02*
X147320000Y-99060000D01*
X149780000Y-98970000D02*
X147410000Y-98970000D01*
X147320000Y-99060000D02*
X147320000Y-106680000D01*
X147850000Y-91970000D02*
X147320000Y-91440000D01*
X149780000Y-91970000D02*
X147850000Y-91970000D01*
X147320000Y-91440000D02*
X147320000Y-99060000D01*
X147440000Y-84970000D02*
X147320000Y-85090000D01*
X149780000Y-84970000D02*
X147440000Y-84970000D01*
X147320000Y-78740000D02*
X147320000Y-85090000D01*
X147320000Y-85090000D02*
X147320000Y-91440000D01*
X144780000Y-81280000D02*
X147320000Y-78740000D01*
X147320000Y-134620000D02*
X147320000Y-135890000D01*
X125730000Y-135890000D02*
X125730000Y-137160000D01*
X125730000Y-130810000D02*
X125730000Y-135890000D01*
X125730000Y-137160000D02*
X125730000Y-139700000D01*
X125730000Y-139700000D02*
X147320000Y-139700000D01*
X147320000Y-135890000D02*
X147320000Y-139700000D01*
X147320000Y-139700000D02*
X147320000Y-140970000D01*
X139380000Y-81280000D02*
X137160000Y-83500000D01*
X144780000Y-81280000D02*
X139380000Y-81280000D01*
X134620000Y-83500000D02*
X131000000Y-83500000D01*
X130840000Y-83340000D02*
X130840000Y-77500000D01*
X131000000Y-83500000D02*
X130840000Y-83340000D01*
M02*
